<?xml version="1.0" encoding="utf-8"?>
<!-- Generator: Adobe Illustrator 25.2.0, SVG Export Plug-In . SVG Version: 6.00 Build 0)  -->
<svg version="1.1" id="Ebene_1" xmlns="http://www.w3.org/2000/svg" xmlns:xlink="http://www.w3.org/1999/xlink" x="0px" y="0px"
	 viewBox="0 0 163.843 53.859" enable-background="new 0 0 163.843 53.859" xml:space="preserve">
<g>
	<g>
		<g>
			<path fill="#FFFFFF" d="M29.07,16.628h-0.01c-0.647,0.002-1.292,0.054-1.931,0.149c0.43,2.965-1.57,5.753-4.54,6.277h0
				c-3.027,0.533-5.914-1.487-6.447-4.515h0c-0.227-1.208,0.021-3.292,0.433-5.656c-1.909-1.395-4.272-2.907-6.626-4.397
				C5.58,5.718,1.27,3.017,0,1.258c1.3,1.729,2.59,6.659,3.93,11.649c1.33,4.99,2.72,10.04,4.22,12.03
				c1.51,2.05,3.87,3.11,6.24,3.04c-0.8,1.2-1.56,2.31-2.02,3.01c-3.23,4.66-6.28,9.36-8.26,10.69l15.76-1.931
				c-0.45-1.3-0.69-2.68-0.69-4.119c0-6.95,5.64-12.591,12.58-12.591c1.87,0,3.64,0.41,5.23,1.141
				C36.79,19.978,33.33,16.628,29.07,16.628z"/>
			<path fill="#FFFFFF" d="M20.174,16.111c0.66,0.898,1.087,1.896,1.296,2.92c1.698-1.191,3.639-1.953,5.655-2.254
				c-0.008-0.057-0.011-0.113-0.021-0.17h0C26.497,12.933,19.052,3.196,18.525,0h0c0.4,2.134-1.111,8.085-1.946,12.884
				C18.207,14.073,19.504,15.178,20.174,16.111z"/>
		</g>
		<path fill="#FFFFFF" d="M39.089,29.496c2.577,0,5.203,0.874,6.759,2.431v-1.799h6.127v23.098h-6.127v-1.75
			c-1.556,1.556-4.182,2.383-6.759,2.383c-7.44,0-11.816-5.836-11.816-12.157S31.649,29.496,39.089,29.496z M39.575,48.218
			c3.258,0,6.517-2.14,6.517-6.517c0-4.376-3.258-6.564-6.517-6.564c-3.647,0-6.175,3.064-6.175,6.564
			C33.4,45.251,35.928,48.218,39.575,48.218z"/>
		<path fill="#FFFFFF" d="M62.188,30.128v2.577c1.022-1.556,3.404-2.577,6.079-2.577h2.821v5.349h-2.869
			c-3.939,0-6.03,2.528-6.03,6.225v11.524h-6.127V30.128H62.188z"/>
		<path fill="#FFFFFF" d="M84.46,24.354l0,5.774l7.003,0l0,5.349l-7.003,0l0,9.531c0,1.702,0.778,2.869,2.674,2.869l4.328,0l0,5.349
			l-4.377,0c-5.787,0-8.753-2.966-8.753-7.245l0-10.504l-4.231,0l0-5.349l4.231,0l0-5.774L84.46,24.354z"/>
		<path fill="#FFFFFF" d="M94.575,44.035V30.128h6.127v12.789c0,3.307,1.751,5.301,5.252,5.301c2.965,0,5.592-2.383,5.592-6.371
			V30.128h6.127v23.098h-6.127v-1.75c-1.314,1.41-3.744,2.383-6.857,2.383C98.758,53.859,94.575,50.113,94.575,44.035z"/>
		<path fill="#FFFFFF" d="M162.994,41.701c0,6.953-5.348,12.157-12.545,12.157c-7.197,0-12.547-5.204-12.547-12.157
			c0-7.003,5.35-12.205,12.547-12.205C157.646,29.496,162.994,34.698,162.994,41.701z M144.029,41.701
			c0,3.841,2.773,6.517,6.42,6.517c3.647,0,6.418-2.676,6.418-6.517c0-3.891-2.772-6.564-6.418-6.564
			C146.803,35.137,144.029,37.811,144.029,41.701z"/>
		<path fill="#FFFFFF" d="M127.885,30.128v2.577c1.021-1.556,3.404-2.577,6.078-2.577h2.822v5.349h-2.871
			c-3.938,0-6.029,2.528-6.029,6.225v11.524h-6.127V30.128H127.885z"/>
	</g>
	<g>
		<path fill="#FFFFFF" d="M158.173,28.019c0-1.61,1.288-2.834,2.834-2.834c1.546,0,2.835,1.224,2.835,2.834
			c0,1.61-1.289,2.835-2.835,2.835C159.461,30.854,158.173,29.629,158.173,28.019z M163.226,28.17v-0.302
			c0-1.102-0.917-2.133-2.219-2.133c-1.303,0-2.219,1.031-2.219,2.133v0.302c0,1.101,0.915,2.134,2.219,2.134
			C162.31,30.304,163.226,29.271,163.226,28.17z M160.507,29.505h-0.573v-2.876h1.289c0.573,0,0.916,0.358,0.916,0.867
			c0,0.441-0.244,0.716-0.559,0.84l0.702,1.169h-0.645l-0.63-1.101h-0.501V29.505z M161.194,27.965c0.215,0,0.33-0.097,0.33-0.289
			v-0.304c0-0.18-0.114-0.289-0.33-0.289h-0.687v0.882H161.194z"/>
	</g>
</g>
</svg>
