<svg width="196" height="36" viewBox="0 0 196 36" fill="none" xmlns="http://www.w3.org/2000/svg">
<g clip-path="url(#clip0_1686_2)">
<path d="M0 18.0891V36.1496H11.3674H22.7349V34.1319V32.1142H13.8173H4.89975V25.5298V18.9453L13.8173 18.9945L22.7349 19.0536V16.9768V14.8903H13.8173H4.89975V9.52632V4.1623H13.8173H22.7349V2.09543V0.0285645H11.3674H0V18.0891Z" fill="#262626"/>
<path d="M29.2026 18.0793V36.1496H31.6035H34.0044V28.9254V21.7111L38.1006 21.652C42.3634 21.593 43.3335 21.5142 44.9798 21.091C48.7625 20.1166 51.1633 17.8037 52.0257 14.2802C52.4471 12.5677 52.5353 10.6386 52.2805 8.78822C51.8885 5.86508 50.8302 3.936 48.7723 2.38093C47.3905 1.33765 45.8716 0.707756 43.7843 0.304225C42.7358 0.107379 42.3242 0.0975402 35.9447 0.0581695L29.2026 0.0187988V18.0793ZM42.628 4.59543C44.8231 5.20565 46.3224 6.64262 46.9887 8.78822C47.2435 9.62481 47.2925 11.4456 47.0965 12.3708C46.5576 14.7821 44.8916 16.4455 42.383 17.0753C41.55 17.282 41.2952 17.2919 37.7772 17.2919L34.0534 17.3017L34.024 10.8255L34.0044 4.33954L37.9928 4.38875C41.4324 4.41827 42.0792 4.4478 42.628 4.59543Z" fill="#262626"/>
<path d="M136.703 18.0891V36.1496H148.071H159.438V34.1319V32.1142H150.52H141.603V25.5298V18.9453L150.52 18.9945L159.438 19.0536V16.9768V14.8903H150.52H141.603V9.52632V4.1623H150.52H159.438V2.09543V0.0285645H148.071H136.703V18.0891Z" fill="#262626"/>
<path d="M165.68 0.14667C165.876 0.481307 176.038 14.5655 176.185 14.7132C176.332 14.8608 176.43 14.7427 177.616 13.0105C178.321 11.9868 178.88 11.1011 178.87 11.0519C178.851 11.0027 177.028 8.50272 174.803 5.50085L170.756 0.0285645H168.179C166.141 0.0285645 165.611 0.0580906 165.68 0.14667Z" fill="#008BE2"/>
<path d="M186.828 3.64066C182.516 10.3039 171.188 27.3506 166.327 34.5059L165.21 36.1496H167.856H170.511L175.578 28.5219C178.361 24.3291 180.664 20.894 180.693 20.894C180.723 20.9039 183.006 24.3291 185.75 28.5219L190.747 36.1496H193.374H196L195.667 35.6279C195.481 35.3523 192.639 30.9823 189.346 25.9333L183.349 16.7505L188.886 8.39445L194.412 0.0285645H191.796H189.18L186.828 3.64066Z" fill="#262626"/>
<path d="M101.131 18.1286V36.1202L101.503 36.1891C102.111 36.2875 113.743 36.258 114.899 36.1497C122.533 35.4509 127.854 30.9924 129.638 23.7977C130.059 22.0852 130.186 20.8648 130.186 18.2861C130.186 15.7862 130.118 14.9496 129.736 13.119C128.413 6.64275 123.631 1.86927 117.163 0.570095C115.213 0.176407 114.066 0.127197 107.432 0.127197H101.131V18.1286ZM114.821 4.99909C117.29 5.40262 119.946 6.9577 121.622 8.9852C123.356 11.0718 124.473 13.3945 124.924 15.8157C125.149 17.0362 125.14 19.8018 124.904 21.0912C124.395 23.8863 122.984 26.4355 120.759 28.5712C118.917 30.3428 117.133 31.1106 114.145 31.4254C113.106 31.5337 108.784 31.5534 107.138 31.455L106.031 31.3959V18.1877C106.031 10.9242 106.06 4.94989 106.099 4.92036C106.129 4.88099 107.902 4.85146 110.039 4.85146C112.998 4.85146 114.135 4.89083 114.821 4.99909Z" fill="#262626"/>
<path d="M76.6323 2.39087V4.54632L77.0047 4.60538C77.2007 4.64475 77.7985 4.78253 78.3276 4.91048C83.002 6.06202 85.9811 9.39854 87.0492 14.6445C87.2354 15.5893 87.2648 16.0322 87.2648 18.1384C87.2648 20.0478 87.2256 20.7368 87.0884 21.4355C86.667 23.5713 85.8635 25.5201 84.7855 27.026C84.1485 27.9216 82.8452 29.211 82.1004 29.6932C80.7971 30.52 79.1704 31.1696 77.5241 31.4943L76.6323 31.6715V33.8761V36.0808L77.3477 36.0119C79.1508 35.8446 81.4733 35.1655 83.247 34.2698C87.7058 32.0455 90.7436 27.961 91.7726 22.8234C92.6937 18.2073 92.1547 12.9319 90.3908 9.3198C88.3133 5.04828 84.4523 1.93813 79.7682 0.766906C79.0332 0.579903 77.0145 0.225586 76.6911 0.225586C76.6617 0.225586 76.6323 1.19997 76.6323 2.39087Z" fill="#262626"/>
<path d="M72.2222 0.570275C66.7149 1.72182 62.4521 5.15676 60.3354 10.1664C59.9238 11.1605 59.5514 12.4006 59.2967 13.6998C58.6695 16.8395 58.7969 21.1012 59.62 24.0636C61.4329 30.6481 66.4895 34.9689 73.5745 35.9924L73.9861 36.0515L73.9665 33.8271L73.9371 31.6028L73.0552 31.3765C69.4489 30.4513 67.0187 28.5222 65.4115 25.3137C64.2062 22.8826 63.7358 20.2547 63.9122 16.9084C64.167 11.9577 66.4013 7.95195 69.9879 5.99334C70.8895 5.51107 72.4574 4.93038 73.3883 4.74338L73.9861 4.62527V2.47967V0.324219L73.6725 0.334061C73.4961 0.334061 72.8396 0.442327 72.2222 0.570275Z" fill="#262626"/>
</g>
<defs>
<clipPath id="clip0_1686_2">
<rect width="196" height="36" fill="white"/>
</clipPath>
</defs>
</svg>
