<svg xmlns="http://www.w3.org/2000/svg" viewBox="0 0 200 58">
    <g fill="none" fill-rule="evenodd">
        <path fill="#003263" d="M14.655 7.829v6.897H6.898V7.829H0V26.71h6.897v-7.192h7.757v7.192h6.898V7.829h-6.898zm23.555 0v12.18c0 1.863-.635 2.053-3.354 2.053-2.793 0-3.925-.07-3.925-1.833v-12.4h-6.899v12.497c0 4.54 1.025 6.53 10.824 6.53 6.492 0 10.252-1.07 10.252-6.53V7.83H38.21zm26.862 0l.37 13.668L58.81 7.829H47.627V26.71h6.905l-.37-13.66 6.535 13.66h11.28V7.829h-6.905zm8.91 0v4.795h6.104v14.087h6.897V12.624h6.422V7.83H73.982zm20.552 5.723c0 2.659.839 4.032 2.372 4.778.767.373 1.708.589 2.804.73.548.07 1.135.122 1.76.166l1.98.113 2.277.117c1.428.071 2.141.112 2.498.294.18.091.27.218.313.401.022.091.034.197.04.32l.006.417c0 1.206-.554 1.418-3.703 1.418-3.247 0-3.736-.24-3.736-1.833v-.27H94.5v.27c0 3.191 1.146 4.788 3.016 5.585.935.4 2.051.6 3.295.7.623.05 1.278.074 1.958.086l2.112.012c5.014 0 8.018-.668 9.452-2.103.574-.575.86-1.23 1.004-1.92.072-.345.107-.7.125-1.055l.02-.536v-.671c0-4.42-1.932-5.156-9.062-5.552l-2.638-.146c-1.828-.106-2.35-.188-2.35-1.344l.005-.27c.008-.087.02-.171.047-.249.054-.157.162-.295.378-.41.431-.23 1.293-.367 3.02-.367 2.66 0 3.289.059 3.289 1.613v.27h6.641v-1.028c0-2.702-1.205-4.054-3.05-4.73-.922-.337-2.004-.506-3.175-.59a32.318 32.318 0 0 0-1.815-.073l-1.89-.012c-6.438 0-10.348.395-10.348 5.87zM192.874 7.829l.37 13.67-6.63-13.67H175.43V26.71h6.905l-.37-13.66 6.534 13.66h11.281V7.829z"/>
        <path fill="#900027" d="M0 44.597v10.058h7.015v-.818H.96v-3.972h5.604v-.816H.96v-3.634h5.985v-.818H0zm8.167 2.79v7.268h.889v-4.24c.027-1.423.873-2.493 2.282-2.493 1.436 0 1.844.944 1.844 2.197v4.536h.889v-4.677c0-1.731-.621-2.802-2.662-2.802-1.029 0-2.001.592-2.326 1.464h-.027v-1.253h-.89zM15.744 47.387h.818v1.704h.028c.45-1.169 1.436-1.86 2.747-1.802v.886c-1.608-.084-2.705 1.1-2.705 2.607v3.873h-.888v-7.268zM20.192 46.023h1v-1.426h-1v1.426zm0 8.632h1v-7.27h-1v7.27zM27.91 49.668h.888c-.197-1.66-1.394-2.492-2.943-2.492-2.225 0-3.436 1.76-3.436 3.845 0 2.084 1.21 3.843 3.436 3.843 1.618 0 2.759-1.069 2.999-2.815h-.888c-.111 1.21-1.013 2.07-2.111 2.07-1.704 0-2.548-1.55-2.548-3.098 0-1.55.844-3.099 2.548-3.099 1.154 0 1.817.662 2.056 1.746zm2.167-5.071v10.058h.89v-4.241c.028-1.422.873-2.492 2.281-2.492 1.437 0 1.845.944 1.845 2.197v4.536h.889v-4.677c0-1.731-.622-2.802-2.663-2.802-1.028 0-2 .592-2.324 1.464h-.028v-4.043h-.89zM37.668 46.023h1v-1.426h-1v1.426zm0 8.632h1v-7.27h-1v7.27zM40.245 47.387v7.268h.889v-4.24c.028-1.422.872-2.493 2.28-2.493 1.438 0 1.845.944 1.845 2.196v4.537h.89v-4.677c0-1.732-.622-2.802-2.664-2.802-1.028 0-2 .592-2.323 1.464h-.028v-1.253h-.889zm13.719 6.675v-6.675h-.889v1.253h-.029c-.352-.803-1.254-1.464-2.308-1.464-2.099 0-3.283 1.661-3.283 3.661 0 2.07.958 3.732 3.283 3.732 1.042 0 1.9-.606 2.308-1.494h.029v.987c0 1.775-.705 2.746-2.337 2.746-.987 0-1.931-.38-2.128-1.45h-.887c.127 1.55 1.564 2.196 3.015 2.196 2.38 0 3.209-1.324 3.226-3.492zm-.889-3.126c0 1.479-.804 2.887-2.337 2.887-1.635 0-2.396-1.423-2.396-2.887 0-1.507.706-3.014 2.396-3.014 1.674 0 2.337 1.59 2.337 3.014zM59.579 54.655h.89V44.597h-.89zM62.183 46.023h1v-1.426h-1v1.426zm0 8.632h1v-7.27h-1v7.27zM63.96 47.386l2.802 7.269h.943l2.718-7.27h-.915l-2.253 6.38h-.029l-2.28-6.38h-.986zm7.857 3.874h5.592c.07-2.043-.861-4.084-3.197-4.084-2.31 0-3.282 1.93-3.282 3.845 0 2.07.972 3.844 3.282 3.844 1.829 0 2.787-.958 3.167-2.606h-.887c-.282 1.099-.985 1.86-2.28 1.86-1.705 0-2.38-1.565-2.395-2.859zm4.704-.744h-4.704c.141-1.327.943-2.594 2.395-2.594 1.436 0 2.267 1.255 2.31 2.594zm6.435-1.003h.887c-.057-1.577-1.211-2.337-2.661-2.337-1.282 0-2.732.564-2.732 2.041 0 1.24.872 1.635 2.027 1.943l1.141.255c.802.196 1.59.479 1.59 1.323 0 1.015-1.153 1.38-1.984 1.38-1.183 0-2.07-.62-2.141-1.816h-.887c.14 1.774 1.295 2.563 2.986 2.563 1.351 0 2.913-.606 2.913-2.183 0-1.267-1.054-1.86-2.068-2.013l-1.183-.268c-.607-.156-1.507-.436-1.507-1.224 0-.945.93-1.255 1.719-1.255 1.013 0 1.858.493 1.9 1.591zM90.7 47.387v-2.184h-.887v2.184h-1.268v.746h1.268v4.972c-.014 1.24.395 1.633 1.577 1.633l.393-.013.397-.015v-.76a6.959 6.959 0 0 1-.761.042c-.635-.042-.719-.38-.719-.958v-4.9h1.48v-.747H90.7zm2.746-2.79v10.058h.889v-4.24c.027-1.422.872-2.493 2.28-2.493 1.436 0 1.845.944 1.845 2.196v4.537h.888v-4.677c0-1.732-.621-2.802-2.664-2.802-1.028 0-2 .592-2.322 1.464h-.027v-4.043h-.89zM101.021 47.387v7.268h.89v-3.873c0-1.508 1.096-2.691 2.704-2.607v-.886c-1.312-.058-2.299.633-2.747 1.802h-.029v-1.704h-.818zm10.692 3.634c0-2.084-1.21-3.845-3.437-3.845-2.224 0-3.435 1.76-3.435 3.845 0 2.084 1.21 3.844 3.435 3.844 2.226 0 3.437-1.76 3.437-3.844zm-5.985 0c0-1.55.845-3.099 2.548-3.099 1.704 0 2.549 1.549 2.549 3.099 0 1.55-.845 3.097-2.549 3.097-1.703 0-2.548-1.548-2.548-3.097zm13.196 3.632v-7.267h-.889v3.817c0 1.48-.66 2.915-2.183 2.915-1.408 0-1.901-.69-1.944-2v-4.732h-.889v4.719c0 1.69.722 2.76 2.551 2.76 1.085 0 2.042-.55 2.508-1.522h.028v1.31h.818zM180.698 47.387h1.48v.746h-1.48v4.901c0 .578.084.916.719.958.252 0 .506-.015.76-.042v.76l-.396.015-.394.013c-1.182 0-1.59-.393-1.576-1.633v-4.972h-1.269v-.746h1.27v-2.184h.886v2.184zM183.469 46.023h1v-1.426h-1v1.426zm0 8.632h1v-7.27h-1v7.27zM192.568 51.02c0-2.083-1.21-3.844-3.436-3.844-2.224 0-3.436 1.76-3.436 3.845 0 2.084 1.212 3.843 3.436 3.843 2.227 0 3.436-1.76 3.436-3.843zm-5.985 0c0-1.549.847-3.098 2.549-3.098 1.705 0 2.55 1.55 2.55 3.099 0 1.55-.845 3.098-2.55 3.098-1.702 0-2.549-1.549-2.549-3.098zm7.294-3.633v7.268h.889v-4.24c.028-1.423.872-2.493 2.28-2.493 1.437 0 1.846.944 1.846 2.197v4.536h.887v-4.677c0-1.731-.62-2.802-2.662-2.802-1.028 0-2 .592-2.323 1.464h-.028v-1.253h-.89z"/>
        <path fill="#003263" d="M136.715 7.829l-4.251 11.328-4.47-11.328h-10.532V26.71h6.912l-.605-13.372 5.803 13.372h5.855l5.773-13.445-.609 13.445h6.912V7.829h-10.788zm29.727 0h-10.03L149.05 26.71h7.192l1.177-3.157h8.18l1.239 3.157h7.064l-7.46-18.882zm-8.228 12.158l3.087-8.49h.44l3.157 8.49h-6.684z"/>
        <path fill="#900027" d="M0 3.915h199.779V0H0zM0 34.543h199.779v-3.915H0zM126.739 54.062v-6.675h-.889v1.253h-.03c-.35-.804-1.252-1.464-2.308-1.464-2.097 0-3.282 1.661-3.282 3.661 0 2.07.96 3.733 3.282 3.733 1.043 0 1.9-.607 2.309-1.495h.03v.987c0 1.775-.706 2.745-2.34 2.745-.985 0-1.927-.378-2.124-1.449h-.887c.126 1.55 1.56 2.196 3.012 2.196 2.38 0 3.212-1.323 3.227-3.492m-.889-3.127c0 1.48-.804 2.888-2.338 2.888-1.632 0-2.393-1.423-2.393-2.888 0-1.506.704-3.013 2.393-3.013 1.677 0 2.338 1.59 2.338 3.013M128.411 44.597h.889v4.043h.03c.323-.872 1.294-1.464 2.322-1.464 2.041 0 2.663 1.07 2.663 2.802v4.677h-.89v-4.536c0-1.253-.407-2.197-1.844-2.197-1.409 0-2.252 1.07-2.281 2.492v4.24h-.889V44.598zM139.916 46.023h1v-1.426h-1v1.426zm0 8.632h1v-7.27h-1v7.27zM142.494 47.387v7.268h.889v-4.24c.028-1.422.872-2.493 2.28-2.493 1.437 0 1.846.944 1.846 2.196v4.537h.888v-4.677c0-1.732-.622-2.802-2.663-2.802-1.028 0-2 .592-2.323 1.464h-.028v-1.253h-.89zm7.561 0v7.268h.889v-4.24c.027-1.422.872-2.493 2.28-2.493 1.436 0 1.845.944 1.845 2.196v4.537h.888v-4.677c0-1.732-.62-2.802-2.662-2.802-1.028 0-2 .592-2.324 1.464h-.027v-1.253h-.889zm14.082 3.634c0-2.084-1.211-3.845-3.435-3.845s-3.435 1.76-3.435 3.845c0 2.084 1.211 3.844 3.435 3.844s3.435-1.76 3.435-3.844zm-5.983 0c0-1.55.844-3.099 2.548-3.099 1.703 0 2.548 1.549 2.548 3.099 0 1.55-.845 3.097-2.548 3.097-1.704 0-2.548-1.548-2.548-3.097zm6.49-3.635l2.802 7.269h.944l2.718-7.27h-.915l-2.254 6.381h-.027l-2.282-6.38h-.987zm7.252 2.226h.887c.029-1.182.847-1.69 1.943-1.69 1.044 0 1.903.296 1.903 1.494 0 .801-.408.9-1.14.985l-.72.084-.7.09c-.455.07-.883.164-1.25.314-.736.3-1.233.828-1.233 1.85 0 1.464 1.1 2.126 2.437 2.126 1.395 0 2.029-.535 2.646-1.48h.03c0 .761.14 1.268 1.041 1.268.24 0 .383-.013.58-.056v-.746a.859.859 0 0 1-.284.056c-.352 0-.52-.197-.52-.535v-3.858c0-1.945-1.394-2.338-2.676-2.338-1.661 0-2.859.733-2.944 2.436zm4.734 1.068v1.158c.013 1.421-1.185 2.28-2.537 2.28-.829 0-1.62-.549-1.62-1.436 0-.71.468-1.063 1.124-1.27a7.095 7.095 0 0 1 1.091-.23l.586-.083.58-.093c.239-.042.633-.113.746-.326h.03z"/>
    </g>
</svg>
