<svg width="100%" height="100%" viewBox="0 0 122 39" fill="none" xmlns="http://www.w3.org/2000/svg">
<path d="M106.899 20.3981V10.514C106.899 10.3839 106.998 10.2863 107.132 10.2863H121.935V6.0275H107.132C104.626 6.0275 102.582 8.04411 102.582 10.514V20.3981C102.582 22.868 104.626 24.8846 107.132 24.8846H122V20.6258H107.132C106.998 20.6258 106.899 20.528 106.899 20.3981Z" fill="#161616"/>
<path d="M30.7545 10.5142C30.7545 10.3841 30.8539 10.2865 30.9859 10.2865H41.306C41.4369 10.2865 41.5362 10.3841 41.5362 10.5142V13.3114H30.7545V10.5142ZM30.9859 24.8848H45.8554V20.626H30.9859C30.8539 20.626 30.7545 20.5281 30.7545 20.3983V17.6008H45.8554V10.5142C45.8554 8.04427 43.8115 6.02766 41.306 6.02766H30.9859C28.4804 6.02766 26.4376 8.04427 26.4376 10.5142V20.3983C26.4376 22.8682 28.4804 24.8848 30.9859 24.8848Z" fill="#161616"/>
<path d="M4.35076 6.24337L18.9901 24.8848H23.737V0.000127792H19.3523V18.6416L4.7481 0.000127792H0V24.8848H4.35076V6.24337Z" fill="#161616"/>
<path d="M84.5186 10.514C84.5186 10.3839 84.6179 10.2863 84.7489 10.2863H95.0678C95.2006 10.2863 95.2999 10.3839 95.2999 10.514V13.3112H84.5186V10.514ZM99.6193 17.6006V10.514C99.6193 8.04411 97.5754 6.0275 95.0678 6.0275H84.7489C82.2431 6.0275 80.1992 8.04411 80.1992 10.514V20.3981C80.1992 22.868 82.2431 24.8846 84.7489 24.8846H99.6193V20.6258H84.7489C84.6179 20.6258 84.5186 20.528 84.5186 20.3981V17.6006H99.6193Z" fill="#161616"/>
<path d="M29.4328 0.000128031L31.0607 3.34829H122V0.000128031H29.4328Z" fill="#161616"/>
<path d="M77.5995 24.8848V10.5142C77.5995 8.04427 75.5556 6.02766 73.0492 6.02766H49.3438V24.8848H53.6629V10.5142C53.6629 10.3841 53.7623 10.2865 53.8955 10.2865H61.1143C61.2136 10.2865 61.3129 10.3841 61.3129 10.5142V24.8848H65.6658V10.5142C65.6658 10.3841 65.731 10.2865 65.8621 10.2865H73.0492C73.215 10.2865 73.3119 10.3841 73.3119 10.5142V24.8848H77.5995Z" fill="#161616"/>
<path d="M112.072 31.3646C111.926 31.2503 111.661 31.2088 111.057 31.2088C110.052 31.2088 109.971 31.2831 109.971 32.1981C109.971 33.0926 110.075 33.1952 110.985 33.1952C112.233 33.1952 112.281 33.0994 112.281 32.3513C112.281 31.6464 112.234 31.5006 112.072 31.3646Z" fill="#161616"/>
<path d="M115.809 33.2295C114.752 33.2295 114.637 33.3878 114.637 34.0117C114.637 35.1397 114.725 35.2309 115.824 35.2309C116.939 35.2309 116.982 35.1214 116.982 34.2648C116.982 33.7708 116.938 33.4933 116.844 33.3927C116.771 33.3192 116.531 33.2295 115.809 33.2295Z" fill="#161616"/>
<path d="M107.424 31.3646C107.279 31.2502 107.013 31.2088 106.409 31.2088C105.404 31.2088 105.322 31.283 105.322 32.1981C105.322 33.0925 105.426 33.1952 106.338 33.1952C107.585 33.1952 107.633 33.0994 107.633 32.3513C107.633 31.6464 107.586 31.5006 107.424 31.3646Z" fill="#161616"/>
<path d="M117.355 35.5231C117.087 35.8413 116.771 35.9234 115.816 35.9234C115.059 35.9234 114.74 35.8565 114.452 35.6377C114.119 35.3961 113.978 35.098 113.948 34.5766C113.937 34.4576 113.934 34.3324 113.931 34.2081L113.918 33.1012L113.938 32.0805L113.932 32.0802L113.933 32.0792L113.941 31.8294C113.942 31.818 113.942 31.8052 113.943 31.7928L113.944 31.7803C113.945 31.775 113.945 31.7696 113.946 31.7646C113.963 31.5034 113.994 31.3697 114.071 31.1982C114.305 30.707 114.76 30.5164 115.694 30.5164C116.126 30.5164 116.611 30.5604 116.822 30.6188C117.308 30.7723 117.543 31.1535 117.543 31.7849V32.0583H116.838V31.7773C116.838 31.3232 116.735 31.2088 115.953 31.2088C115.026 31.2088 114.839 31.2902 114.748 31.4846C114.709 31.5692 114.665 31.823 114.665 32.0525V32.842C114.918 32.5816 115.244 32.5371 115.966 32.5371C117.305 32.5371 117.672 32.8918 117.672 34.188C117.672 34.7979 117.559 35.2718 117.355 35.5231ZM112.744 35.4332C112.565 35.6964 112.255 35.8583 111.847 35.8997C111.649 35.9157 111.42 35.9234 111.144 35.9234C110.2 35.9234 109.865 35.8578 109.588 35.6189C109.373 35.4329 109.245 35.0838 109.245 34.6856C109.245 34.6454 109.245 34.558 109.253 34.4632L109.259 34.3735H109.953L109.94 34.4831C109.933 34.5395 109.934 34.5956 109.934 34.6165C109.934 34.8548 109.993 35.0431 110.087 35.1082C110.212 35.2085 110.393 35.2309 111.057 35.2309C112.216 35.2309 112.273 35.1783 112.273 34.1039V33.6023C112.22 33.6608 112.166 33.7004 112.1 33.7332C111.993 33.786 111.859 33.8216 111.664 33.8485C111.402 33.8742 111.143 33.8877 110.913 33.8877C110.292 33.8877 109.965 33.8125 109.705 33.6092C109.397 33.3777 109.281 33.0161 109.281 32.2746C109.281 30.8615 109.64 30.5164 111.107 30.5164C111.735 30.5164 112.066 30.5624 112.327 30.6852C112.731 30.8844 112.931 31.2393 112.977 31.8383C112.99 31.9623 112.998 32.1369 112.998 32.3132L113.005 32.7399C113.005 33.23 113.012 33.6044 113.012 33.6044C113.012 34.7125 112.949 35.1394 112.744 35.4332ZM108.096 35.4334C107.919 35.6962 107.609 35.8578 107.201 35.8997C107.003 35.9157 106.772 35.9234 106.496 35.9234C105.553 35.9234 105.219 35.8578 104.942 35.6189C104.726 35.4329 104.598 35.0838 104.598 34.6856C104.598 34.6454 104.598 34.558 104.606 34.4632L104.613 34.3735H105.307L105.294 34.4831C105.287 34.5395 105.288 34.5956 105.288 34.6165C105.288 34.8551 105.345 35.0434 105.439 35.1082C105.565 35.2085 105.745 35.2309 106.41 35.2309C107.569 35.2309 107.626 35.1783 107.626 34.1039V33.6013C107.572 33.6602 107.517 33.7004 107.452 33.7332C107.347 33.7855 107.213 33.8211 107.017 33.8485C106.754 33.8742 106.495 33.8877 106.267 33.8877C105.646 33.8877 105.318 33.8125 105.059 33.6092C104.749 33.3784 104.633 33.0163 104.633 32.2746C104.633 30.8615 104.992 30.5164 106.46 30.5164C107.089 30.5164 107.419 30.5624 107.681 30.6852C108.084 30.8836 108.284 31.2391 108.329 31.8383C108.343 31.9585 108.352 32.1333 108.352 32.3132L108.359 32.7399C108.359 33.23 108.366 33.6044 108.366 33.6044C108.366 34.713 108.303 35.1402 108.096 35.4334ZM102.96 35.8697H102.242V31.3458L101.11 32.6809L100.641 32.2022L102.056 30.5698H102.96V35.8697ZM98.2115 35.8697H97.4648V34.9781H98.2115V35.8697ZM97.2907 31.3008H95.741V35.8697H95.0224V31.3008H93.4655V30.5698H97.2907V31.3008ZM92.5973 35.501C92.3173 35.8329 91.9499 35.9234 90.8873 35.9234C90.2579 35.9234 90.0377 35.9096 89.7959 35.8181C89.3933 35.6616 89.1737 35.345 89.1055 34.8215C89.0905 34.6785 89.0839 34.5702 89.0755 34.353L89.075 34.0981H89.7935V34.3179C89.7935 34.8726 89.8653 35.0192 90.0167 35.1232C90.128 35.2083 90.3159 35.2309 90.8945 35.2309C92.1127 35.2309 92.1474 35.1501 92.1474 34.2798C92.1474 33.7817 92.0331 33.6602 91.8231 33.6097C91.7549 33.5942 91.6747 33.5861 91.5885 33.5772L91.4809 33.5655C91.0931 33.5454 91.01 33.5403 90.9118 33.5345C90.8263 33.5289 90.7281 33.5225 90.3955 33.5047C89.4657 33.4404 89.1043 33.0377 89.1043 32.0683C89.1043 30.8501 89.5033 30.5164 90.9597 30.5164C92.011 30.5164 92.3825 30.6457 92.6171 31.0938C92.7397 31.3237 92.7792 31.5573 92.7792 32.0525V32.1501H92.0606V32.0525C92.0606 31.6604 92.0307 31.5448 91.9619 31.4335C91.8662 31.2818 91.707 31.2088 91.0602 31.2088C90.4038 31.2088 90.192 31.2376 90.0323 31.3471C89.8594 31.4665 89.8229 31.7552 89.8229 31.9763C89.8229 32.5094 89.9252 32.6443 90.1274 32.718C90.2136 32.7533 90.3398 32.7742 90.5044 32.782C90.5486 32.7876 90.6522 32.792 90.8011 32.7991L91.0716 32.8123C91.9529 32.8575 92.2659 32.9076 92.5106 33.1342C92.7649 33.3637 92.8648 33.7001 92.8648 34.3331C92.8648 34.911 92.7792 35.282 92.5973 35.501ZM88.2373 31.2627H85.7045V32.797H88.1296V33.4742H85.7045V35.1773H88.2373V35.8697H84.9859V30.5698H88.2373V31.2627ZM0 27.9951V38.3221H122V27.9951H0Z" fill="#161616"/>
</svg>
