<?xml version="1.0" encoding="UTF-8"?>
<svg id="Ebene_1" data-name="Ebene 1" xmlns="http://www.w3.org/2000/svg" viewBox="0 0 155 50">
  <defs>
    <style>
      .cls-1 {
        fill: #041c8d;
      }

      .cls-2 {
        fill: #eb0a14;
      }
    </style>
  </defs>
  <g id="remmers">
    <path class="cls-1" d="m14.13,32.59c-.76-.15-1.71-.19-2.47-.19-1.79,0-3.77.68-5.02,1.71v14.57H.97v-21.49s4.46,0,4.46,0l1.18,3.16h.15c.87-2.09,2.74-3.61,5.55-3.61.61,0,1.33.08,1.83.19v5.67Z"/>
    <path class="cls-1" d="m33.34,46.7c-1.67,1.37-3.77,2.4-7.87,2.4-6.77,0-10.23-3.8-10.23-11.22,0-6.96,3.88-11.11,10.08-11.11,5.48,0,8.63,3.46,8.63,8.71,0,1.1-.04,2.17-.27,3.84h-12.82c.08,3.39,1.6,5.25,5.25,5.25,2.32,0,3.92-1.1,4.72-1.94l2.51,4.07Zm-12.36-11.18h7.57v-.57c0-2.51-1.07-3.84-3.39-3.84-2.59,0-4.11,1.9-4.18,4.41Z"/>
    <path class="cls-1" d="m59.64,26.69c4.22,0,6.7,2.24,6.7,7.15v14.83h-5.68v-13.81c0-2.51-1.29-3.35-2.78-3.35s-2.97.95-3.62,2.47v14.68h-5.66v-13.39c0-2.51-1.1-3.77-3.08-3.77-1.41,0-2.78,1.14-3.31,2.55v14.61h-5.68v-21.49h4.65l.95,2.02h.15c1.33-1.71,3.54-2.51,5.67-2.51,3.27,0,4.6,1.37,5.36,2.89h.15c1.1-1.48,3.13-2.89,6.17-2.89Z"/>
    <path class="cls-1" d="m92.41,26.69c4.22,0,6.7,2.24,6.7,7.15v14.83h-5.68v-13.81c0-2.51-1.29-3.35-2.78-3.35s-2.97.95-3.62,2.47v14.68h-5.66v-13.39c0-2.51-1.1-3.77-3.08-3.77-1.41,0-2.78,1.14-3.31,2.55v14.61h-5.68v-21.49h4.65l.95,2.02h.15c1.33-1.71,3.54-2.51,5.67-2.51,3.27,0,4.6,1.37,5.36,2.89h.15c1.1-1.48,3.13-2.89,6.17-2.89Z"/>
    <path class="cls-1" d="m120.01,46.7c-1.67,1.37-3.77,2.4-7.87,2.4-6.77,0-10.23-3.8-10.23-11.22,0-6.96,3.88-11.11,10.08-11.11,5.48,0,8.63,3.46,8.63,8.71,0,1.1-.04,2.17-.27,3.84h-12.82c.08,3.39,1.6,5.25,5.25,5.25,2.32,0,3.92-1.1,4.72-1.94l2.51,4.07Zm-12.36-11.18h7.57v-.57c0-2.51-1.07-3.84-3.39-3.84-2.59,0-4.11,1.9-4.18,4.41Z"/>
    <path class="cls-1" d="m136.39,32.59c-.76-.15-1.71-.19-2.47-.19-1.79,0-3.77.68-5.02,1.71v14.57h-5.68v-21.49s4.46,0,4.46,0l1.18,3.16h.15c.87-2.09,2.74-3.61,5.55-3.61.61,0,1.33.08,1.83.19v5.67Z"/>
    <path class="cls-1" d="m138.21,33.46c0-3.5,3-6.66,7.99-6.66,3.88,0,6.35,1.37,7.76,3l-3.69,3.61c-.76-.87-2.24-2.02-4.22-2.02-1.29,0-2.13.68-2.13,1.67,0,3.23,10.12,2.09,10.12,9.28,0,2.85-2.24,6.69-8.48,6.69-4.72,0-7.57-1.98-8.75-3.23l3.42-3.96c.95,1.1,3.04,2.66,5.63,2.66,1.79,0,2.47-.84,2.47-1.83,0-3.12-10.12-2.09-10.12-9.24Z"/>
  </g>
  <polygon id="dach" class="cls-2" points="99.12 .91 69.3 14.81 69.3 21.07 99.12 7.17 128.9 21.05 128.9 14.79 99.12 .91"/>
</svg>