<?xml version="1.0" encoding="utf-8"?>
<!-- Generator: Adobe Illustrator 22.0.1, SVG Export Plug-In . SVG Version: 6.00 Build 0)  -->
<svg version="1.1" id="Laag_1" xmlns="http://www.w3.org/2000/svg" xmlns:xlink="http://www.w3.org/1999/xlink" x="0px" y="0px"
	 viewBox="0 0 338 96" style="enable-background:new 0 0 338 96;" xml:space="preserve">
<style type="text/css">
	.st0{clip-path:url(#SVGID_2_);}
	.st1{clip-path:url(#SVGID_4_);}
</style>
<path d="M291,10.2c-20.7,0-37.5,16.8-37.5,37.5c0,20.7,16.8,37.5,37.5,37.5s37.5-16.8,37.5-37.5C328.5,27,311.7,10.2,291,10.2
	 M291,81.2c-18.5,0-33.5-15-33.5-33.4s15-33.5,33.4-33.5c18.5,0,33.5,15,33.5,33.4c0,0,0,0,0,0C324.5,66.2,309.5,81.2,291,81.2
	L291,81.2z"/>
<path d="M338,47.1c-0.8-3.2-2.4-6.3-4.4-8.9c0.8-3.3,0.8-6.7,0.2-10c-3.1-6.8-7.9-12.8-13.8-17.4c-3.1-1.4-6.5-2.1-9.9-2.1
	c-2.2-2.8-4.9-5-8.1-6.6c-7-1.7-14.3-1.7-21.3-0.1c-3.2,1.6-6.1,3.8-8.4,6.7c-3.7,0-7.3,0.8-10.5,2.4c-5.4,4.3-9.8,9.7-12.9,15.9
	c-0.9,3.6-0.9,7.4-0.1,11.1c-2.4,3-4,6.5-4.8,10.2c0.1,6.7,1.6,13.4,4.4,19.5c2.3,3,5.3,5.5,8.7,7.1c0.8,3.6,2.5,7,4.8,9.9
	c5.4,4.3,11.8,7.3,18.5,8.9c3.7,0,7.3-0.8,10.6-2.4c3.2,1.6,6.7,2.4,10.3,2.4c7.1-1.6,13.7-4.9,19.4-9.5c2.1-2.7,3.6-5.9,4.3-9.2
	c3.1-1.5,5.8-3.5,8-6.1c3.3-6.5,5-13.7,5-21C338,47.6,338,47.4,338,47.1 M291.8,89.2c-22.8,0-41.3-18.5-41.3-41.3
	c0-22.8,18.5-41.3,41.3-41.3s41.3,18.5,41.3,41.3C333,70.6,314.6,89,291.8,89.1L291.8,89.2z"/>
<path d="M291,18.1c-16.4,0-29.6,13.3-29.6,29.6s13.3,29.6,29.6,29.6c16.4,0,29.6-13.3,29.6-29.6c0,0,0,0,0,0
	C320.6,31.4,307.4,18.1,291,18.1 M291,72.9c-13.9,0-25.2-11.3-25.2-25.2s11.3-25.2,25.2-25.2c13.9,0,25.2,11.3,25.2,25.2v0
	C316.2,61.6,304.9,72.9,291,72.9L291,72.9z"/>
<path d="M291,24.8c-12.7,0-22.9,10.3-22.9,22.9s10.3,22.9,22.9,22.9c12.7,0,22.9-10.3,22.9-22.9S303.7,24.8,291,24.8 M291,61.6
	c-7.6,0-13.8-6.2-13.8-13.8c0-7.6,6.2-13.8,13.8-13.8c7.6,0,13.8,6.2,13.8,13.8C304.9,55.4,298.7,61.6,291,61.6L291,61.6z"/>
<path d="M291,36.2c-6.4,0-11.6,5.2-11.6,11.6c0,6.4,5.2,11.6,11.6,11.6c6.4,0,11.6-5.2,11.6-11.6c0,0,0,0,0,0
	C302.6,41.4,297.4,36.2,291,36.2"/>
<polyline points="1.5,80.4 13.3,80.4 13.3,82.5 8.7,82.5 8.7,94.9 6.1,94.9 6.1,82.5 1.5,82.5 1.5,80.4 "/>
<polyline points="22,80.4 24.5,80.4 24.5,86.1 31.2,86.1 31.2,80.4 33.7,80.4 33.7,94.9 31.2,94.9 31.2,88.3 24.5,88.3 24.5,94.9 
	22,94.9 22,80.4 "/>
<rect x="43.8" y="80.4" width="2.5" height="14.5"/>
<polyline points="56.5,80.4 59.2,80.4 65.8,91 65.9,91 65.9,80.4 68.3,80.4 68.3,94.9 65.6,94.9 59,84.2 58.9,84.2 58.9,94.9 
	56.5,94.9 56.5,80.4 "/>
<polyline points="78.4,80.4 80.9,80.4 80.9,87 87.4,80.4 90.5,80.4 84.7,86.1 90.9,94.9 87.8,94.9 83,87.9 80.9,90 80.9,94.9 
	78.4,94.9 78.4,80.4 "/>
<path d="M109,80.4h2.5v8.5c0,1.9,0.1,4.2,3.4,4.2s3.4-2.3,3.4-4.2v-8.5h2.5v9.3c-0.1,3.7-2.4,5.6-6,5.6c-3.6,0-6-1.8-6-5.6V80.4"/>
<polyline points="130.8,80.4 133.5,80.4 140.1,91 140.2,91 140.2,80.4 142.6,80.4 142.6,94.9 139.9,94.9 133.3,84.2 133.2,84.2 
	133.2,94.9 130.8,94.9 130.8,80.4 "/>
<rect x="152.7" y="80.4" width="2.5" height="14.5"/>
<polyline points="164.1,80.4 175.8,80.4 175.8,82.5 171.2,82.5 171.2,94.9 168.7,94.9 168.7,82.5 164.1,82.5 164.1,80.4 "/>
<polyline points="184.6,80.4 195.1,80.4 195.1,82.5 187.2,82.5 187.2,86.4 194.5,86.4 194.5,88.4 187.2,88.4 187.2,92.7 195.2,92.7 
	195.2,94.9 184.6,94.9 184.6,80.4 "/>
<path d="M204.5,80.4h6c4.5,0,6.4,3.3,6.4,7.3c0,4-1.9,7.3-6.4,7.3h-6V80.4 M207.1,92.8h2.5c4,0,4.8-2.3,4.8-5.2
	c0-2.9-0.9-5.1-4.9-5.1H207L207.1,92.8L207.1,92.8z"/>
<path d="M147.8,25.9c1.1-0.9,2.5-1.4,4-1.3c1.4-0.1,2.8,0.5,3.7,1.6c0.8,1.1,1.2,2.5,1.1,3.8v1.1h15.2c0-5.2-1.7-9-4.9-11.5
	c-3.2-2.5-8.3-3.7-15.5-3.7c-6.9,0-12.1,1.4-15.4,4c-3.4,2.8-5.3,7-5.1,11.5c-0.1,2.5,0.6,4.9,2,6.9c1.2,1.8,2.8,3.2,4.7,4.3
	c2,1.1,4.1,2,6.2,2.8c2.2,0.5,4.3,1.2,6.4,2c1.7,0.5,3.2,1.3,4.7,2.3c1.2,0.9,2,2.3,1.9,3.8c0.1,1.3-0.4,2.5-1.3,3.4
	c-2.3,1.8-5.5,1.8-7.8,0c-1-0.8-1.5-2.2-1.5-4.4v-1.2h-16V53c0,2.3,0.5,4.5,1.4,6.6c0.9,1.7,2.3,3.2,4,4.2c2,1.2,4.3,2,6.7,2.3
	c3,0.5,6,0.7,9,0.7c7.2,0,12.7-1.1,16.5-3.6c3.9-2.4,5.7-6.1,5.7-11.3c0.1-2.6-0.6-5.2-2-7.3c-1.3-1.8-3-3.4-5-4.6
	c-2-1.1-4.2-2-6.4-2.7c-2.2-0.8-4.4-1.4-6.4-2.1c-1.7-0.7-3.4-1.5-5-2.5c-1.2-0.9-1.9-2.3-1.9-3.8C146.7,27.8,147.1,26.7,147.8,25.9
	"/>
<polyline points="128.8,16.8 113.3,16.8 113.3,47.1 112.9,47.1 102.5,16.8 84.1,16.8 84.1,66 99.6,66 99.6,35.6 99.7,35.6 110.7,66 
	128.8,66 128.8,16.8 "/>
<g>
	<defs>
		<rect id="SVGID_1_" y="0.8" width="338" height="94.4"/>
	</defs>
	<clipPath id="SVGID_2_">
		<use xlink:href="#SVGID_1_"  style="overflow:visible;"/>
	</clipPath>
	<g class="st0">
		<g>
			<defs>
				<rect id="SVGID_3_" x="-0.1" y="-0.2" width="338.5" height="95.5"/>
			</defs>
			<clipPath id="SVGID_4_">
				<use xlink:href="#SVGID_3_"  style="overflow:visible;"/>
			</clipPath>
			<g class="st1">
				<polyline points="81.8,27.4 81.8,16.8 44.5,16.8 44.5,66 82.6,66 82.6,55.5 61.1,55.5 61.1,45.9 80.6,45.9 80.6,35.9 61.1,35.9 
					61.1,27.4 81.8,27.4 				"/>
				<path d="M16.4,28.9c0.1-1.1,0.5-2.2,1.3-3c1.2-0.9,2.6-1.4,4.1-1.3c1.4-0.1,2.7,0.5,3.6,1.6c0.7,1.1,1.1,2.5,1.1,3.8v1.1h15.2
					c0-5.2-1.7-9-4.9-11.5c-3.2-2.5-8.3-3.7-15.5-3.7C14.2,16,9,17.4,5.7,20s-5.1,6.4-5.1,11.5c-0.1,2.4,0.6,4.8,2,6.8
					c1.2,1.8,2.8,3.2,4.7,4.3c2,1.1,4.1,2.1,6.2,2.8c2.2,0.5,4.3,1.2,6.4,2c1.7,0.5,3.3,1.3,4.7,2.3c1.2,0.9,1.9,2.3,1.9,3.8
					c0.1,1.3-0.4,2.5-1.3,3.4c-1.1,0.9-2.5,1.4-3.9,1.3c-1.4,0.1-2.8-0.3-3.9-1.3c-1-0.8-1.6-2.2-1.6-4.4v-1.1H-0.1V53
					c0,2.3,0.5,4.5,1.4,6.6c0.9,1.8,2.4,3.2,4.1,4.2c2,1.2,4.2,2,6.5,2.3c3,0.5,6,0.8,9,0.7c7.1,0,12.7-1.1,16.5-3.6
					c3.9-2.4,5.6-6.1,5.6-11.3c0.1-2.6-0.6-5.2-2-7.3c-1.3-1.8-3-3.4-5-4.6c-2-1.1-4.2-2-6.4-2.7c-2.2-0.8-4.4-1.4-6.4-2.1
					c-1.8-0.7-3.4-1.5-5-2.5C17,31.9,16.3,30.5,16.4,28.9"/>
			</g>
		</g>
		<path d="M196.2,15.9c-3.5-0.1-7.1,0.5-10.4,1.6c-2.7,0.8-5.2,2.3-7,4.4c-1.9,2.2-3.2,5-3.7,7.9c-0.9,3.8-1.4,7.7-1.3,11.7
			c-0.1,4,0.3,7.9,1.3,11.8c0.5,2.9,1.8,5.6,3.7,7.9c1.8,2.1,4.3,3.7,7,4.4c3.4,0.9,6.9,1.3,10.4,1.3c3.6,0,7.1-0.4,10.6-1.3
			c2.7-0.8,5.1-2.3,6.9-4.4c1.9-2.3,3.2-5,3.8-7.9c0.8-3.9,1.2-7.8,1.1-11.8c0.1-3.9-0.3-7.8-1.1-11.7c-0.2-0.9-0.4-1.8-0.8-2.7
			c-0.7-1.9-1.7-3.7-3-5.2c-0.3-0.4-0.6-0.8-1-1.1c-1.7-1.6-3.7-2.7-5.9-3.3c-3.4-1.1-7-1.6-10.6-1.6 M190.8,41.5
			c0-3.3,0-6.1,0.1-8.3c0.1-1.7,0.3-3.4,0.7-5.1c0.3-1.1,0.9-2,1.8-2.7c0.8-0.6,1.9-0.8,2.9-0.8c1.1-0.1,2.1,0.2,3,0.8
			c0.8,0.7,1.3,1.6,1.6,2.7c0.5,1.7,0.8,3.4,0.8,5.1c0.2,2.2,0.2,5,0.2,8.3s0,6-0.2,8.2c0,1.7-0.3,3.4-0.8,5.1c-0.2,1-0.8,2-1.6,2.7
			c-0.9,0.6-1.9,0.8-3,0.8c-1,0.1-2-0.2-2.9-0.8c-0.9-0.7-1.5-1.6-1.8-2.7c-0.3-1.7-0.6-3.4-0.7-5.1
			C190.8,47.5,190.8,44.7,190.8,41.5z"/>
	</g>
</g>
</svg>
