<?xml version="1.0" encoding="UTF-8"?>
<svg id="Ebene_1" xmlns="http://www.w3.org/2000/svg" version="1.1" viewBox="0 0 286.8 81">
  <!-- Generator: Adobe Illustrator 30.2.1, SVG Export Plug-In . SVG Version: 2.1.1 Build 1)  -->
  <defs>
    <style>
      .st0 {
        fill: #1d1d1b;
      }

      .st1 {
        fill: #ffd500;
      }
    </style>
  </defs>
  <g>
    <path class="st0" d="M91.2,23.4c-1.7-2.8-4.1-5-7-6.6-2.9-1.6-6.2-2.4-9.5-2.4h-24.6c0,0-.1,0-.1,0,0,0,0,0,0-.1V1.1h-.2c-2.5,0-4.9,1-6.6,2.7-1.8,1.7-2.8,4.1-2.8,6.5v3.9s0,0,0,.1c0,0,0,0-.1,0H12.5c-4,0-7.9,2.1-9.9,5.5-1,1.7-1.5,3.6-1.5,5.5s.5,3.8,1.5,5.5c2,3.4,5.7,5.5,9.8,5.5h13c.8,0,1.5.4,1.8,1,.2.3.3.6.3,1s-.1.7-.3,1.1c-.4.6-1.1,1-1.8,1H1.4v.3c1.2,5.1,5.8,8.8,11.1,8.8h13c4,0,7.8-2.1,9.8-5.5,1-1.7,1.5-3.6,1.5-5.5s-.5-3.8-1.5-5.5c-2-3.4-5.7-5.5-9.8-5.5h-13c-.8,0-1.5-.4-1.8-1-.2-.3-.3-.7-.3-1s.1-.7.3-1.1c.4-.6,1.1-1,1.8-1s0,0,0,0h27.5s.1,0,.1,0c0,0,0,0,0,.1v17.8c0,3.4,1.9,6.5,5,8.1,1.4.7,2.9,1.1,4.4,1.1s3.6-.5,5.2-1.5c.1,0,.2-.2.2-.3v-8l-.3.3c-.5.4-1.2.6-1.9.6s-.9,0-1.3-.3c-1-.5-1.7-1.5-1.7-2.6v-15c0,0,0,0,0-.1,0,0,0,0,.1,0h7.9c-1.7,2.7-2.6,5.8-2.6,9,0,3.2.9,6.3,2.6,9,1.7,2.8,4.1,5,7,6.6,2.9,1.6,6.2,2.4,9.6,2.4s6.6-.8,9.6-2.4c2.9-1.6,5.3-3.8,7-6.6,1.7-2.7,2.6-5.8,2.6-9s-.9-6.3-2.6-9M79.3,40c-1.4.8-3,1.2-4.7,1.2s-3.2-.4-4.7-1.2c-1.4-.8-2.6-1.9-3.4-3.2-.8-1.3-1.2-2.8-1.2-4.4,0-1.6.4-3.1,1.2-4.4.8-1.4,2-2.5,3.4-3.2,1.4-.8,3.1-1.2,4.7-1.2s3.2.4,4.7,1.2c1.4.8,2.6,1.9,3.4,3.2.8,1.3,1.2,2.8,1.2,4.4,0,1.6-.4,3.1-1.2,4.4-.8,1.4-2,2.5-3.4,3.2"/>
    <rect class="st1" x="111.3" y="14.4" width="173.4" height="35.2"/>
  </g>
  <g>
    <path class="st0" d="M111.2,65h2.8c2.1,0,3.6.7,3.6,2.8s-.5,1.8-1.6,2.3c1.2.4,1.9,1.3,1.9,2.8,0,2.3-1.8,3.1-3.9,3.1h-2.8v-11ZM115.4,70c.6-.5,1-1.2,1-2,0-1.4-.8-1.9-2.3-1.9h-1.5v3.8h1.5c.5,0,1,0,1.4.1ZM112.5,70.9v4.1h1.4c1.9,0,2.8-.6,2.8-2s-.8-2.1-2.8-2.1h-1.4Z"/>
    <path class="st0" d="M121.2,73c0,1.3.4,2.1,1.8,2.1s1.6-.4,2-1.4v-6h1.2v8.2h-1.2v-1.7c-.4,1.3-1.2,1.9-2.3,1.9-1.9,0-2.8-1.4-2.8-2.8v-5.6h1.2v5.2Z"/>
    <path class="st0" d="M128.5,65.5c0-.5.4-.9.9-.9s.9.4.9.9-.4.9-.9.9-.9-.4-.9-.9ZM128.8,67.8h1.2v8.2h-1.2v-8.2Z"/>
    <path class="st0" d="M132.5,64.1h1.2v11.9h-1.2v-11.9Z"/>
    <path class="st0" d="M135.7,71.9c0-2.4,1.2-4.3,3.4-4.3s2.1.6,2.4,1.6v-5h1.2v11.9h-1.1v-1.5c-.4,1.1-1.2,1.7-2.5,1.7-2.3,0-3.4-1.9-3.4-4.3ZM139.4,75.1c.9,0,1.6-.5,2-1.2v-4.1c-.4-.9-1.2-1.2-2-1.2-1.7,0-2.5,1.2-2.5,3.2s.8,3.2,2.5,3.2Z"/>
    <path class="st0" d="M144.9,65.5c0-.5.4-.9.9-.9s.9.4.9.9-.4.9-.9.9-.9-.4-.9-.9ZM145.2,67.8h1.2v8.2h-1.2v-8.2Z"/>
    <path class="st0" d="M148.9,67.8h1.2v1.7c.4-1.3,1.2-1.9,2.3-1.9,1.9,0,2.8,1.4,2.8,2.8v5.6h-1.2v-5.2c0-1.3-.4-2.1-1.8-2.1s-1.6.4-2,1.4v6h-1.2v-8.2Z"/>
    <path class="st0" d="M158,78.2c.7.3,1.5.4,2.3.4,1.6,0,2.5-.8,2.5-2.6v-1.4c-.4.9-1.2,1.3-2.3,1.3-2.2,0-3.3-1.9-3.3-4.2s1.1-4.2,3.3-4.2,2,.5,2.4,1.4v-1.2h1.2v8.3c0,2.5-1.4,3.7-3.7,3.7s-1.5-.1-2.3-.4v-1.1ZM160.9,75c.8,0,1.6-.4,2-1v-4.4c-.5-.7-1.3-1-2-1-1.6,0-2.4,1.2-2.4,3.2s.8,3.2,2.4,3.2Z"/>
    <path class="st0" d="M178.3,76l-2.2-7h0l-2.3,7h-1.3l-2.7-8.2h1.3l2,6.7h0l2.2-6.7h1.5l2.1,6.7h0l2-6.7h1.3l-2.7,8.2h-1.3Z"/>
    <path class="st0" d="M183.6,65.5c0-.5.4-.9.9-.9s.9.4.9.9-.4.9-.9.9-.9-.4-.9-.9ZM183.9,67.8h1.2v8.2h-1.2v-8.2Z"/>
    <path class="st0" d="M188.1,74v-5.2h-1.2v-1.1h1.2v-2.1h1.3v2.1h1.9v1.1h-1.9v5.1c0,1,.4,1.2,1,1.2s.7,0,1-.2v1c-.4.1-.9.2-1.2.2-1.5,0-2-1.1-2-2.2Z"/>
    <path class="st0" d="M193.2,64.1h1.2v5.1c.4-1.2,1.2-1.7,2.3-1.7,1.9,0,2.8,1.4,2.8,2.8v5.6h-1.2v-5.2c0-1.3-.4-2.1-1.8-2.1s-1.6.4-2,1.4v6h-1.2v-11.9Z"/>
    <path class="st0" d="M205.7,71.9c0-2.5,1.3-4.3,4.1-4.3s1.4.1,1.8.3v1.1c-.4-.2-1-.3-1.8-.3-2.1,0-2.9,1.4-2.9,3.2s.9,3.2,2.9,3.2,1.4,0,1.8-.3v1.1c-.5.2-1.1.3-1.8.3-2.7,0-4.1-1.9-4.1-4.3Z"/>
    <path class="st0" d="M212.6,71.9c0-2.6,1.5-4.3,3.7-4.3s3.7,1.7,3.7,4.3-1.5,4.3-3.7,4.3-3.7-1.7-3.7-4.3ZM218.9,71.9c0-2.1-1-3.3-2.5-3.3s-2.5,1.1-2.5,3.3,1,3.3,2.5,3.3,2.5-1.2,2.5-3.3Z"/>
    <path class="st0" d="M222.1,67.8h1.2v1.7c.4-1.3,1.2-1.9,2.3-1.9,1.9,0,2.8,1.4,2.8,2.8v5.6h-1.2v-5.2c0-1.3-.4-2.1-1.8-2.1s-1.6.4-2,1.4v6h-1.2v-8.2Z"/>
    <path class="st0" d="M230.4,75.8v-1.1c.6.3,1.4.5,2,.5,1.2,0,1.6-.6,1.6-1.3s-.3-1.1-1.3-1.5l-.5-.2c-1.1-.4-1.9-1.1-1.9-2.4s1.2-2.3,2.7-2.3,1.4.1,1.9.4v1.1c-.6-.3-1.2-.4-1.9-.4-.9,0-1.4.4-1.4,1.1s.3,1.1,1.2,1.4l.5.2c1.2.5,2,1.1,2,2.4s-1.4,2.4-2.8,2.4-1.5-.2-2.1-.4Z"/>
    <path class="st0" d="M236.5,71.9c0-2.5,1.3-4.3,4.1-4.3s1.4.1,1.8.3v1.1c-.4-.2-1-.3-1.8-.3-2.1,0-2.9,1.4-2.9,3.2s.9,3.2,2.9,3.2,1.4,0,1.8-.3v1.1c-.5.2-1.1.3-1.8.3-2.7,0-4.1-1.9-4.1-4.3Z"/>
    <path class="st0" d="M243.9,65.5c0-.5.4-.9.9-.9s.9.4.9.9-.4.9-.9.9-.9-.4-.9-.9ZM244.2,67.8h1.2v8.2h-1.2v-8.2Z"/>
    <path class="st0" d="M247.3,71.8c0-2.6,1.3-4.3,3.5-4.3s3.2,1.7,3.2,3.4,0,.8,0,1.2h-5.4c0,1.7.8,2.9,2.5,2.9s1.8-.2,2.6-.7v1.2c-.8.4-1.6.6-2.6.6-2.7,0-3.7-1.9-3.7-4.4ZM248.6,71.2h4.1v-.2c0-1.2-.5-2.4-1.9-2.4s-2,.7-2.2,2.5Z"/>
    <path class="st0" d="M256.1,67.8h1.2v1.7c.4-1.3,1.2-1.9,2.3-1.9,1.9,0,2.8,1.4,2.8,2.8v5.6h-1.2v-5.2c0-1.3-.4-2.1-1.8-2.1s-1.6.4-2,1.4v6h-1.2v-8.2Z"/>
    <path class="st0" d="M264.3,71.9c0-2.5,1.3-4.3,4.1-4.3s1.4.1,1.8.3v1.1c-.4-.2-1-.3-1.8-.3-2.1,0-2.9,1.4-2.9,3.2s.9,3.2,2.9,3.2,1.4,0,1.8-.3v1.1c-.5.2-1.1.3-1.8.3-2.7,0-4.1-1.9-4.1-4.3Z"/>
    <path class="st0" d="M271.2,71.8c0-2.6,1.3-4.3,3.5-4.3s3.2,1.7,3.2,3.4,0,.8,0,1.2h-5.4c0,1.7.8,2.9,2.5,2.9s1.8-.2,2.6-.7v1.2c-.8.4-1.6.6-2.6.6-2.7,0-3.7-1.9-3.7-4.4ZM272.5,71.2h4.1v-.2c0-1.2-.5-2.4-1.9-2.4s-2,.7-2.2,2.5Z"/>
    <path class="st0" d="M279.2,75.3c0-.5.3-.9.9-.9s.8.4.8.9-.4.9-.8.9-.9-.4-.9-.9Z"/>
  </g>
</svg>