<svg width="175" height="52" viewBox="0 0 175 52" fill="none" xmlns="http://www.w3.org/2000/svg">
<g clip-path="url(#clip0_1333_122)">
<path d="M167.547 42.547C167.358 42.5463 167.176 42.4714 167.042 42.3385C166.907 42.2056 166.829 42.0252 166.826 41.836V41.811C166.826 41.6195 166.902 41.4359 167.037 41.3005C167.173 41.1651 167.357 41.089 167.548 41.089C167.739 41.089 167.923 41.1651 168.059 41.3005C168.194 41.4359 168.27 41.6195 168.27 41.811V41.836C168.266 42.0255 168.189 42.206 168.053 42.3389C167.918 42.4718 167.737 42.5465 167.547 42.547ZM167.547 43.188C167.911 43.1878 168.261 43.047 168.523 42.7951C168.786 42.5432 168.941 42.1996 168.956 41.836V41.811C168.942 41.4465 168.788 41.1015 168.525 40.8485C168.262 40.5955 167.912 40.4541 167.547 40.4541C167.182 40.4541 166.832 40.5955 166.569 40.8485C166.306 41.1015 166.152 41.4465 166.138 41.811V41.836C166.153 42.1996 166.308 42.5432 166.571 42.7951C166.833 43.047 167.183 43.1878 167.547 43.188ZM166.698 50.215C167.061 50.2117 167.418 50.1187 167.737 49.9442C168.056 49.7697 168.326 49.5193 168.525 49.215V50.102H170.296V43.851H168.525V47.337C168.525 48.177 168.094 48.608 167.419 48.608C166.744 48.608 166.348 48.177 166.348 47.337V43.851H164.579V47.896C164.539 48.1929 164.565 48.4949 164.654 48.7807C164.744 49.0666 164.895 49.3293 165.097 49.5504C165.299 49.7716 165.547 49.9457 165.824 50.0605C166.1 50.1753 166.399 50.2281 166.698 50.215ZM157.371 50.101H159.14V46.613C159.14 45.775 159.571 45.344 160.246 45.344C160.921 45.344 161.317 45.775 161.317 46.613V50.1H163.086V46.055C163.126 45.758 163.101 45.4559 163.012 45.1698C162.922 44.8837 162.771 44.6208 162.569 44.3995C162.367 44.1782 162.119 44.004 161.842 43.8892C161.565 43.7744 161.266 43.7218 160.967 43.735C160.604 43.7378 160.246 43.8306 159.928 44.0051C159.609 44.1796 159.338 44.4304 159.14 44.735V41.591H157.37L157.371 50.101ZM153.671 50.24C154.155 50.2592 154.638 50.1662 155.08 49.9681C155.522 49.7699 155.913 49.4722 156.221 49.098L155.183 48.049C155.003 48.2522 154.783 48.416 154.536 48.5303C154.29 48.6445 154.023 48.7067 153.751 48.713C153.532 48.7113 153.315 48.6645 153.114 48.5755C152.914 48.4865 152.734 48.3571 152.585 48.1955C152.437 48.0339 152.323 47.8435 152.251 47.6361C152.179 47.4287 152.151 47.2088 152.168 46.99V46.965C152.154 46.7536 152.182 46.5414 152.25 46.341C152.319 46.1405 152.427 45.9557 152.568 45.7974C152.709 45.6391 152.88 45.5105 153.071 45.4191C153.262 45.3277 153.469 45.2753 153.681 45.265C153.954 45.2656 154.224 45.3277 154.47 45.4468C154.716 45.5659 154.932 45.7389 155.102 45.953L156.185 44.786C155.877 44.4325 155.493 44.1541 155.061 43.9723C154.629 43.7905 154.161 43.71 153.693 43.737C153.262 43.7282 152.835 43.8062 152.435 43.9664C152.035 44.1265 151.672 44.3654 151.366 44.669C151.061 44.9726 150.82 45.3345 150.657 45.7333C150.495 46.132 150.414 46.5594 150.42 46.99V47.013C150.415 47.4399 150.495 47.8634 150.657 48.2586C150.818 48.6537 151.057 49.0124 151.36 49.3134C151.663 49.6144 152.023 49.8515 152.419 50.0106C152.815 50.1698 153.239 50.2478 153.666 50.24H153.671ZM146.031 50.101H147.8V47.791C147.8 46.3 148.523 45.591 149.7 45.591H149.791V43.735C149.352 43.7029 148.915 43.8217 148.553 44.0718C148.191 44.3218 147.925 44.6882 147.8 45.11V43.851H146.031V50.101ZM140.941 50.147H142.549L145.006 43.847H143.166L141.757 48.033L140.357 43.847H138.482L140.941 50.147ZM134.746 48.712C134.524 48.71 134.305 48.6635 134.101 48.5752C133.897 48.4869 133.713 48.3586 133.56 48.198C133.407 48.0373 133.288 47.8475 133.209 47.6398C133.13 47.4322 133.094 47.2109 133.103 46.989V46.964C133.089 46.7439 133.121 46.5234 133.197 46.3162C133.272 46.109 133.389 45.9197 133.542 45.7601C133.694 45.6004 133.877 45.474 134.08 45.3886C134.284 45.3032 134.503 45.2608 134.723 45.264C134.945 45.2662 135.164 45.313 135.368 45.4016C135.572 45.4901 135.755 45.6186 135.908 45.7795C136.061 45.9403 136.181 46.1303 136.259 46.338C136.337 46.5458 136.373 46.7672 136.364 46.989V47.012C136.378 47.2323 136.346 47.4531 136.27 47.6605C136.195 47.8679 136.077 48.0574 135.924 48.2171C135.772 48.3768 135.588 48.5032 135.384 48.5883C135.181 48.6735 134.962 48.7156 134.741 48.712H134.746ZM134.723 50.24C135.16 50.2547 135.596 50.1816 136.005 50.0251C136.414 49.8686 136.787 49.6318 137.103 49.3287C137.418 49.0256 137.67 48.6623 137.843 48.2603C138.016 47.8583 138.107 47.4257 138.11 46.988V46.963C138.108 46.528 138.019 46.0978 137.847 45.698C137.676 45.2982 137.425 44.9369 137.111 44.6357C136.798 44.3345 136.426 44.0995 136.02 43.9446C135.613 43.7897 135.18 43.7181 134.745 43.734C134.307 43.7192 133.871 43.7922 133.462 43.9487C133.053 44.1052 132.68 44.342 132.364 44.6453C132.048 44.9485 131.796 45.3119 131.623 45.7141C131.45 46.1163 131.359 46.5491 131.356 46.987V47.01C131.358 47.4449 131.447 47.875 131.618 48.2748C131.789 48.6746 132.039 49.0359 132.353 49.3372C132.666 49.6385 133.037 49.8737 133.444 50.0288C133.85 50.1838 134.283 50.2557 134.718 50.24H134.723ZM127.06 48.712C126.846 48.7037 126.635 48.6518 126.441 48.5595C126.248 48.4673 126.075 48.3366 125.933 48.1754C125.792 48.0143 125.684 47.826 125.618 47.622C125.551 47.4181 125.527 47.2027 125.546 46.989V46.964C125.518 46.7481 125.537 46.5288 125.6 46.3206C125.664 46.1125 125.771 45.9203 125.915 45.7568C126.059 45.5934 126.236 45.4625 126.434 45.3728C126.633 45.2831 126.848 45.2367 127.065 45.2367C127.283 45.2367 127.498 45.2831 127.697 45.3728C127.895 45.4625 128.072 45.5934 128.216 45.7568C128.36 45.9203 128.467 46.1125 128.531 46.3206C128.594 46.5288 128.613 46.7481 128.585 46.964V46.989C128.604 47.2039 128.579 47.4205 128.511 47.6254C128.444 47.8302 128.335 48.0191 128.192 48.1805C128.048 48.3418 127.874 48.4722 127.678 48.5636C127.483 48.655 127.271 48.7055 127.055 48.712H127.06ZM123.799 51.965H125.568V49.284C125.797 49.5802 126.092 49.8186 126.43 49.9802C126.768 50.1419 127.139 50.2223 127.513 50.215C127.917 50.2057 128.314 50.1129 128.681 49.9423C129.047 49.7717 129.374 49.5271 129.641 49.224C129.908 48.9208 130.109 48.5656 130.232 48.1808C130.355 47.7959 130.397 47.3898 130.355 46.988V46.963C130.395 46.5615 130.352 46.156 130.228 45.7719C130.104 45.3878 129.903 45.0333 129.636 44.7304C129.37 44.4275 129.044 44.1827 128.678 44.0113C128.313 43.8399 127.916 43.7455 127.513 43.734C127.13 43.7271 126.751 43.8162 126.411 43.9934C126.072 44.1705 125.782 44.4299 125.568 44.748V43.848H123.799V51.965ZM113.049 50.101H114.81V46.613C114.81 45.775 115.241 45.344 115.916 45.344C116.591 45.344 116.987 45.775 116.987 46.613V50.1H118.756V46.055C118.796 45.7581 118.771 45.456 118.681 45.17C118.592 44.884 118.441 44.6211 118.239 44.3999C118.037 44.1787 117.788 44.0045 117.512 43.8896C117.235 43.7747 116.936 43.7219 116.637 43.735C116.274 43.7384 115.917 43.8315 115.598 44.0059C115.279 44.1804 115.009 44.4308 114.81 44.735V41.591H113.039L113.049 50.101ZM109.349 50.24C109.833 50.2592 110.316 50.1662 110.758 49.9681C111.2 49.7699 111.591 49.4722 111.899 49.098L110.863 48.049C110.683 48.2523 110.462 48.4162 110.216 48.5305C109.969 48.6447 109.702 48.7069 109.43 48.713C109.21 48.7116 108.993 48.665 108.793 48.5761C108.592 48.4872 108.411 48.3579 108.263 48.1963C108.114 48.0346 108 47.8441 107.928 47.6366C107.856 47.4291 107.828 47.209 107.845 46.99V46.965C107.831 46.7537 107.86 46.5418 107.929 46.3416C107.998 46.1414 108.106 45.9569 108.247 45.7988C108.388 45.6406 108.559 45.512 108.749 45.4204C108.94 45.3288 109.148 45.276 109.359 45.265C109.632 45.2656 109.902 45.3277 110.148 45.4468C110.394 45.5659 110.61 45.7389 110.78 45.953L111.863 44.786C111.555 44.4323 111.171 44.1538 110.739 43.972C110.307 43.7901 109.839 43.7097 109.371 43.737C108.94 43.7282 108.513 43.8062 108.113 43.9664C107.713 44.1265 107.35 44.3654 107.044 44.669C106.739 44.9726 106.498 45.3345 106.335 45.7333C106.172 46.132 106.092 46.5594 106.098 46.99V47.013C106.093 47.4396 106.173 47.8629 106.334 48.2579C106.496 48.6528 106.735 49.0114 107.037 49.3123C107.339 49.6132 107.699 49.8504 108.095 50.0098C108.491 50.1691 108.914 50.2474 109.341 50.24H109.349ZM101.638 43.165H102.989L104.481 41.765L102.956 41.101L101.638 43.165ZM101.255 52C102.314 52 102.826 51.523 103.304 50.25L105.704 43.85H103.864L102.501 48.105L101.082 43.85H99.207L101.652 50.122C101.61 50.2497 101.527 50.3595 101.415 50.4334C101.303 50.5073 101.169 50.541 101.035 50.529C100.767 50.5124 100.507 50.4288 100.279 50.286L99.685 51.568C100.155 51.8558 100.696 52.0055 101.247 52H101.255ZM94.849 50.146H96.457L98.914 43.846H97.072L95.665 48.032L94.265 43.846H92.39L94.849 50.146ZM88.649 48.711C88.4271 48.709 88.2078 48.6625 88.0042 48.5742C87.8007 48.4859 87.6169 48.3576 87.4638 48.1968C87.3108 48.0361 87.1916 47.8463 87.1133 47.6387C87.035 47.431 86.9991 47.2098 87.008 46.988V46.963C86.9942 46.7431 87.026 46.5227 87.1013 46.3157C87.1767 46.1086 87.294 45.9194 87.4459 45.7598C87.5978 45.6002 87.781 45.4737 87.9841 45.3882C88.1872 45.3027 88.4057 45.2601 88.626 45.263C88.8481 45.2651 89.0676 45.3118 89.2714 45.4003C89.4751 45.4887 89.6591 45.6172 89.8123 45.7781C89.9655 45.9389 90.0849 46.1289 90.1633 46.3367C90.2418 46.5446 90.2777 46.766 90.269 46.988V47.011C90.283 47.2315 90.2512 47.4525 90.1755 47.6601C90.0999 47.8677 89.982 48.0573 89.8295 48.2171C89.6769 48.3769 89.4929 48.5034 89.289 48.5886C89.0852 48.6737 88.8659 48.7158 88.645 48.712L88.649 48.711ZM88.626 50.239C89.0631 50.2532 89.4985 50.1797 89.9067 50.023C90.315 49.8663 90.6877 49.6296 91.0031 49.3266C91.3184 49.0237 91.57 48.6607 91.7429 48.2591C91.9158 47.8574 92.0066 47.4253 92.01 46.988V46.963C91.9702 46.092 91.5954 45.2701 90.9638 44.669C90.3323 44.0679 89.4929 43.7341 88.621 43.7374C87.7492 43.7406 86.9123 44.0806 86.2852 44.6864C85.6581 45.2921 85.2894 46.1168 85.256 46.988V47.011C85.2579 47.4462 85.3472 47.8765 85.5187 48.2765C85.6903 48.6764 85.9405 49.0377 86.2546 49.339C86.5686 49.6402 86.94 49.8753 87.3467 50.03C87.7534 50.1848 88.1871 50.2562 88.622 50.24L88.626 50.239ZM78.959 50.1H80.73V48.2L81.347 47.547L82.977 50.101H85.003L82.546 46.313L84.922 43.852H82.8L80.726 46.126V41.591H78.955L78.959 50.1ZM71.704 50.1H73.475V46.613C73.475 45.775 73.904 45.344 74.581 45.344C75.258 45.344 75.652 45.775 75.652 46.613V50.1H77.421V46.055C77.4613 45.758 77.4358 45.4559 77.3465 45.1698C77.2572 44.8837 77.1061 44.6208 76.904 44.3995C76.7019 44.1782 76.4537 44.004 76.1768 43.8892C75.9 43.7744 75.6014 43.7218 75.302 43.735C74.9387 43.7384 74.5818 43.8315 74.2631 44.0059C73.9444 44.1804 73.6737 44.4308 73.475 44.735V43.848H71.7L71.704 50.1ZM68.385 43.164H69.736L71.228 41.764L69.701 41.1L68.385 43.164ZM68.269 50.1H70.04V43.851H68.269V50.1ZM57.123 50.1H58.894V46.613C58.894 45.775 59.302 45.344 59.965 45.344C60.628 45.344 61.003 45.775 61.003 46.613V50.1H62.772V46.613C62.772 45.775 63.178 45.344 63.843 45.344C64.508 45.344 64.881 45.775 64.881 46.613V50.1H66.65V46.032C66.65 44.527 65.859 43.732 64.541 43.732C64.1463 43.7288 63.7562 43.8165 63.4008 43.9883C63.0455 44.1602 62.7345 44.4116 62.492 44.723C62.3249 44.4064 62.0701 44.1446 61.7582 43.9689C61.4463 43.7932 61.0904 43.7109 60.733 43.732C60.3679 43.7353 60.0091 43.8282 59.6883 44.0026C59.3675 44.1769 59.0944 44.4274 58.893 44.732V43.845H57.122L57.123 50.1ZM52.536 48.993C51.964 48.993 51.569 48.711 51.569 48.234V48.211C51.569 47.651 52.033 47.348 52.791 47.348C53.1795 47.3448 53.5643 47.4239 53.92 47.58V47.895C53.916 48.537 53.358 48.993 52.532 48.993H52.536ZM52 50.215C52.3535 50.2302 52.7059 50.1671 53.0322 50.0302C53.3584 49.8933 53.6503 49.6859 53.887 49.423V50.101H55.598V46.478C55.6234 46.1176 55.5768 45.7558 55.4609 45.4136C55.345 45.0715 55.1621 44.7558 54.923 44.485C54.6354 44.2343 54.3009 44.0433 53.9388 43.9232C53.5767 43.803 53.1944 43.756 52.814 43.785C51.9792 43.766 51.151 43.937 50.392 44.285L50.835 45.637C51.3827 45.4151 51.9681 45.301 52.559 45.301C53.444 45.301 53.897 45.708 53.897 46.442V46.549C53.408 46.373 52.8917 46.2853 52.372 46.29C50.893 46.29 49.857 46.918 49.857 48.284V48.307C49.8585 48.5771 49.9167 48.8439 50.0278 49.0901C50.1389 49.3362 50.3004 49.5564 50.5019 49.7362C50.7034 49.9161 50.9404 50.0516 51.1976 50.1341C51.4548 50.2165 51.7265 50.2441 51.995 50.215H52ZM43.452 50.101H45.221V48.201L45.838 47.548L47.468 50.102H49.496L47.037 46.314L49.413 43.853H47.29L45.216 46.127V41.591H43.447L43.452 50.101ZM34.252 46.487C34.268 46.1359 34.4161 45.8038 34.6667 45.5574C34.9172 45.3109 35.2517 45.1682 35.603 45.158C35.9506 45.1663 36.2815 45.3095 36.5254 45.5574C36.7693 45.8052 36.9072 46.1383 36.91 46.486L34.252 46.487ZM35.777 50.24C36.2635 50.2583 36.7475 50.1625 37.1903 49.9602C37.6331 49.7579 38.0224 49.4547 38.327 49.075L37.314 48.175C37.1197 48.3807 36.8848 48.5439 36.6242 48.6543C36.3636 48.7646 36.083 48.8197 35.8 48.816C35.439 48.8395 35.0822 48.727 34.8 48.5007C34.5177 48.2743 34.3304 47.9505 34.275 47.593H38.61C38.621 47.429 38.633 47.266 38.633 47.127C38.633 45.356 37.68 43.735 35.594 43.735C35.1755 43.7382 34.762 43.8258 34.3781 43.9926C33.9943 44.1593 33.648 44.4018 33.3601 44.7055C33.0721 45.0092 32.8485 45.3679 32.7024 45.7601C32.5563 46.1523 32.4909 46.5699 32.51 46.988V47.011C32.4949 47.4419 32.5692 47.8713 32.7283 48.2721C32.8873 48.6728 33.1276 49.0363 33.4341 49.3397C33.7405 49.643 34.1064 49.8796 34.5088 50.0346C34.9112 50.1895 35.3413 50.2595 35.772 50.24H35.777ZM29.29 50.24C29.7744 50.2596 30.2567 50.1667 30.6992 49.9686C31.1416 49.7704 31.5321 49.4725 31.84 49.098L30.804 48.049C30.624 48.2524 30.4038 48.4164 30.1574 48.5306C29.911 48.6449 29.6436 48.707 29.372 48.713C29.1524 48.7116 28.9354 48.665 28.7346 48.5761C28.5338 48.4872 28.3534 48.3579 28.2047 48.1963C28.056 48.0346 27.9422 47.8441 27.8704 47.6366C27.7985 47.4291 27.7701 47.209 27.787 46.99V46.965C27.7735 46.7537 27.802 46.5418 27.871 46.3416C27.94 46.1414 28.0481 45.9569 28.1889 45.7988C28.3297 45.6406 28.5005 45.512 28.6914 45.4204C28.8823 45.3288 29.0895 45.276 29.301 45.265C29.5743 45.2658 29.8439 45.328 30.0899 45.4471C30.3359 45.5662 30.5519 45.7391 30.722 45.953L31.804 44.786C31.4965 44.4323 31.1119 44.1538 30.6799 43.972C30.2479 43.7901 29.7799 43.7097 29.312 43.737C28.8816 43.7282 28.4538 43.8062 28.0541 43.9664C27.6545 44.1265 27.2912 44.3655 26.9859 44.6691C26.6807 44.9727 26.4397 45.3347 26.2773 45.7334C26.115 46.1322 26.0346 46.5595 26.041 46.99V47.013C26.0357 47.4397 26.1161 47.8631 26.2775 48.2581C26.4389 48.6531 26.6779 49.0117 26.9804 49.3127C27.283 49.6136 27.6428 49.8508 28.0387 50.01C28.4345 50.1693 28.8584 50.2475 29.285 50.24H29.29ZM21.649 50.101H23.42V47.791C23.42 46.3 24.141 45.591 25.32 45.591H25.413V43.735C24.974 43.7025 24.5372 43.8212 24.175 44.0713C23.8128 44.3214 23.547 44.688 23.422 45.11V43.851H21.651L21.649 50.101ZM17.31 42.547C17.1207 42.5463 16.9393 42.4714 16.8045 42.3385C16.6698 42.2056 16.5924 42.0252 16.589 41.836V41.811C16.589 41.6195 16.6651 41.4359 16.8005 41.3005C16.9359 41.1651 17.1195 41.089 17.311 41.089C17.5025 41.089 17.6861 41.1651 17.8215 41.3005C17.9569 41.4359 18.033 41.6195 18.033 41.811V41.836C18.0296 42.0256 17.952 42.2063 17.8168 42.3392C17.6816 42.4722 17.4996 42.5468 17.31 42.547ZM17.31 43.188C17.6739 43.1878 18.0236 43.047 18.2862 42.7951C18.5487 42.5432 18.7038 42.1996 18.719 41.836V41.811C18.7053 41.4465 18.5508 41.1015 18.2881 40.8485C18.0253 40.5955 17.6748 40.4541 17.31 40.4541C16.9452 40.4541 16.5947 40.5955 16.3319 40.8485C16.0692 41.1015 15.9147 41.4465 15.901 41.811V41.836C15.9162 42.1996 16.0713 42.5432 16.3339 42.7951C16.5964 43.047 16.9461 43.1878 17.31 43.188ZM16.46 50.215C16.8236 50.2117 17.1808 50.1188 17.4999 49.9443C17.8189 49.7699 18.09 49.5194 18.289 49.215V50.102H20.058V43.851H18.289V47.337C18.289 48.177 17.858 48.608 17.183 48.608C16.508 48.608 16.11 48.178 16.11 47.337V43.851H14.341V47.896C14.3008 48.1932 14.3265 48.4955 14.416 48.7817C14.5056 49.0678 14.657 49.3308 14.8594 49.552C15.0618 49.7732 15.3104 49.9473 15.5875 50.0618C15.8646 50.1764 16.1635 50.2287 16.463 50.215H16.46ZM9.298 50.146H10.91L13.367 43.846H11.527L10.116 48.032L8.716 43.846H6.841L9.298 50.146ZM2.51901 50.1H4.31302V43.6H6.793V41.939H0.0390015V43.596H2.51901V50.1Z" fill="#060009"/>
<path d="M156.203 34.681V13.993H170.024V19.603H163.492V21.596H169.419V26.896H163.492V29.07H170.192V34.68L156.203 34.681ZM131.765 34.681V13.993H139.05L145.475 24.817C145.384 24.2876 145.324 23.7534 145.296 23.217C145.263 22.634 145.249 21.87 145.249 20.925V13.993H152.406V34.681H145.066L138.71 23.939C138.787 24.402 138.84 24.898 138.879 25.439C138.918 25.98 138.937 26.562 138.937 27.222V34.684L131.765 34.681ZM128.645 24.381C128.658 25.8292 128.387 27.2658 127.845 28.609C127.304 29.9229 126.502 31.1135 125.488 32.109C124.459 33.1102 123.242 33.8971 121.907 34.424C119.124 35.4967 116.043 35.4967 113.26 34.424C111.918 33.8913 110.697 33.0938 109.67 32.079C108.662 31.1041 107.87 29.9293 107.343 28.63C106.288 25.8873 106.288 22.8507 107.343 20.108C107.868 18.8032 108.661 17.6231 109.67 16.644C110.693 15.638 111.91 14.8495 113.246 14.326C116.046 13.2584 119.14 13.2584 121.94 14.326C123.279 14.8514 124.5 15.6395 125.53 16.644C126.531 17.634 127.319 18.8174 127.848 20.122C128.389 21.4756 128.66 22.9232 128.645 24.381ZM117.592 28.281C118.065 28.2996 118.536 28.2136 118.972 28.0291C119.407 27.8447 119.797 27.5664 120.113 27.214C120.776 26.423 121.116 25.4109 121.066 24.38C121.116 23.3409 120.776 22.3205 120.113 21.519C119.787 21.1767 119.395 20.9044 118.961 20.7186C118.526 20.5328 118.059 20.4374 117.586 20.4382C117.114 20.4391 116.646 20.5361 116.212 20.7235C115.779 20.9108 115.388 21.1846 115.063 21.528C114.396 22.3244 114.054 23.3425 114.103 24.38C114.051 25.4124 114.394 26.4257 115.063 27.214C115.381 27.566 115.772 27.844 116.209 28.0284C116.646 28.2127 117.118 28.299 117.592 28.281ZM93.307 34.681V20.759H89.174V13.993H104.868V20.759H100.733V34.681H93.307ZM71.102 32.916L73.473 27.124C74.3601 27.7667 75.3135 28.3125 76.317 28.752C77.055 29.0757 77.8493 29.2516 78.655 29.27C79.0748 29.2933 79.4922 29.1924 79.855 28.98C79.9913 28.8995 80.1037 28.7841 80.1806 28.6458C80.2576 28.5075 80.2964 28.3512 80.293 28.193C80.293 27.621 79.565 27.181 78.105 26.882C77.634 26.776 77.268 26.699 77.005 26.641C75.6409 26.3671 74.3999 25.6646 73.463 24.636C72.6275 23.631 72.1901 22.3542 72.234 21.048C72.2016 20.0228 72.3989 19.0033 72.8116 18.0643C73.2243 17.1252 73.8418 16.2904 74.619 15.621C76.3716 14.1699 78.602 13.4237 80.875 13.528C82.0572 13.527 83.2342 13.6837 84.375 13.994C85.5839 14.3291 86.7497 14.8036 87.849 15.408L85.589 20.819C84.9276 20.3219 84.2029 19.9153 83.434 19.61C82.7655 19.3437 82.0536 19.203 81.334 19.195C80.9177 19.1716 80.503 19.2618 80.134 19.456C80.0036 19.5274 79.8952 19.633 79.8205 19.7615C79.7458 19.8899 79.7076 20.0364 79.71 20.185C79.71 20.768 80.742 21.285 82.804 21.724C83.133 21.8 83.388 21.858 83.566 21.897C84.876 22.1513 86.0604 22.8435 86.925 23.86C87.7507 24.8708 88.1864 26.1442 88.153 27.449C88.1838 28.5094 87.9775 29.5634 87.5492 30.5339C87.1208 31.5045 86.4812 32.3671 85.677 33.059C83.8744 34.5618 81.5755 35.3371 79.231 35.233C77.8557 35.2299 76.4875 35.035 75.166 34.654C73.746 34.2412 72.3814 33.6576 71.102 32.916ZM50.061 19.743V23.193H51.218C51.7934 23.2293 52.3646 23.0727 52.841 22.748C53.0293 22.5971 53.1788 22.4033 53.277 22.183C53.3753 21.9626 53.4195 21.7219 53.406 21.481C53.417 21.2376 53.3705 20.9951 53.2703 20.773C53.17 20.551 53.0189 20.3557 52.829 20.203C52.3594 19.8722 51.7914 19.7104 51.218 19.744L50.061 19.743ZM42.592 34.681V13.993H51.472C54.596 13.993 56.8807 14.5963 58.326 15.803C59.7713 17.0097 60.4937 18.9213 60.493 21.538C60.493 23.978 59.8447 25.7607 58.548 26.886C57.2513 28.0113 55.1887 28.574 52.36 28.574H50.033V34.681H42.592ZM39.474 24.381C39.4865 25.8291 39.2147 27.2656 38.674 28.609C38.1335 29.9232 37.3316 31.114 36.317 32.109C35.2884 33.1102 34.0712 33.8971 32.736 34.424C29.9542 35.4967 26.8728 35.4967 24.091 34.424C22.7484 33.8926 21.5272 33.0949 20.501 32.079C19.4933 31.1037 18.7001 29.9291 18.172 28.63C17.1191 25.8869 17.1191 22.8511 18.172 20.108C18.6982 18.8035 19.4915 17.6235 20.501 16.644C21.5237 15.6381 22.7395 14.8496 24.075 14.326C26.8747 13.2584 29.9693 13.2584 32.769 14.326C34.1088 14.8517 35.33 15.6398 36.361 16.644C37.3603 17.6349 38.1485 18.8181 38.678 20.122C39.2189 21.4757 39.4894 22.9233 39.474 24.381ZM28.42 28.281C28.8928 28.2996 29.3639 28.2136 29.7997 28.0291C30.2355 27.8447 30.6252 27.5664 30.941 27.214C31.6034 26.4227 31.9429 25.4107 31.892 24.38C31.9422 23.3409 31.6023 22.3205 30.939 21.519C30.6131 21.1768 30.2209 20.9046 29.7864 20.7189C29.3519 20.5331 28.8841 20.4378 28.4116 20.4386C27.939 20.4395 27.4716 20.5365 27.0378 20.7238C26.6039 20.911 26.2127 21.1847 25.888 21.528C25.2223 22.3249 24.88 23.3428 24.929 24.38C24.8787 25.4126 25.2229 26.4258 25.892 27.214C26.2099 27.5657 26.6009 27.8435 27.0377 28.0279C27.4744 28.2122 27.9463 28.2986 28.42 28.281ZM4.13501 34.681V20.759H0V13.993H15.7V20.759H11.565V34.681H4.13501Z" fill="#060009"/>
<path d="M65.176 2.009C65.848 2.141 66.23 3.085 66.028 4.118C65.826 5.151 65.116 5.88 64.442 5.748C63.768 5.616 63.388 4.672 63.59 3.641C63.792 2.61 64.504 1.877 65.176 2.009ZM67.982 4.172C68.524 4.323 68.782 5.086 68.565 5.872C68.348 6.658 67.725 7.172 67.183 7.022C66.641 6.872 66.383 6.108 66.6 5.322C66.817 4.536 67.438 4.019 67.982 4.172ZM70.297 6.04C70.73 6.167 70.917 6.832 70.714 7.526C70.511 8.22 69.996 8.683 69.565 8.556C69.134 8.429 68.945 7.766 69.146 7.07C69.347 6.374 69.864 5.915 70.297 6.04ZM72.337 8.186C72.712 8.309 72.867 8.858 72.684 9.411C72.501 9.964 72.05 10.311 71.675 10.189C71.3 10.067 71.145 9.517 71.328 8.964C71.511 8.411 71.963 8.061 72.338 8.186H72.337ZM64.009 7.315C59.99 6.058 59.161 8.524 59.351 10.033C59.805 13.624 65.251 14.26 64.606 20.06C64.351 23.137 66.798 24.324 68.306 21.817C69.221 20.3 69.193 18.833 70.706 15.351C72.305 11.833 69.187 9.12 64.01 7.314L64.009 7.315ZM59.654 38.063C63.786 39.508 64.476 37.007 66.007 28.569C66.614 25.587 64.997 24.769 62.477 27.242C57.208 32.787 57.375 37.142 59.654 38.063ZM60.876 0C61.985 0 62.883 1.232 62.883 2.757C62.883 4.282 61.983 5.512 60.876 5.512C59.769 5.512 58.876 4.278 58.876 2.757C58.876 1.236 59.771 0 60.876 0Z" fill="#AF000B"/>
<path d="M172.261 6.216C171.744 5.69965 171.064 5.37847 170.337 5.30716C169.61 5.23586 168.881 5.41884 168.274 5.82493C167.666 6.23102 167.219 6.83511 167.007 7.53428C166.795 8.23345 166.832 8.98444 167.112 9.65932C167.391 10.3342 167.897 10.8912 168.541 11.2355C169.185 11.5797 169.929 11.6899 170.646 11.5473C171.362 11.4047 172.007 11.0181 172.47 10.4533C172.934 9.88853 173.187 9.18056 173.187 8.45C173.188 8.03495 173.106 7.62388 172.947 7.24047C172.788 6.85705 172.555 6.50888 172.261 6.216ZM169.231 8.128H169.851C170.104 8.1408 170.357 8.1247 170.606 8.08C170.702 8.04785 170.785 7.98537 170.842 7.902C170.902 7.80908 170.932 7.7003 170.928 7.59C170.934 7.4666 170.893 7.34548 170.815 7.25C170.731 7.15992 170.618 7.10193 170.496 7.086C170.429 7.079 170.225 7.074 169.885 7.074H169.23L169.231 8.128ZM168.391 10.528V6.371H170.158C170.485 6.35545 170.812 6.39363 171.126 6.484C171.328 6.55827 171.499 6.6994 171.61 6.884C171.732 7.08025 171.795 7.30783 171.79 7.539C171.801 7.82212 171.704 8.09882 171.517 8.312C171.297 8.53389 171.005 8.67003 170.693 8.696C170.86 8.79016 171.011 8.90806 171.144 9.046C171.322 9.25758 171.481 9.48371 171.621 9.722L172.13 10.532H171.125L170.518 9.632C170.385 9.41846 170.237 9.21431 170.076 9.021C170.007 8.94403 169.921 8.88471 169.824 8.848C169.686 8.81005 169.543 8.79385 169.4 8.8H169.231V10.529L168.391 10.528ZM170.026 4.31C170.983 4.30999 171.911 4.6419 172.651 5.24916C173.391 5.85642 173.898 6.70148 174.084 7.64035C174.271 8.57923 174.127 9.55385 173.676 10.3982C173.225 11.2425 172.495 11.9042 171.61 12.2707C170.726 12.6372 169.742 12.6858 168.826 12.4081C167.91 12.1304 167.118 11.5437 166.586 10.7478C166.054 9.95202 165.814 8.99635 165.908 8.04365C166.001 7.09094 166.422 6.20014 167.099 5.523C167.483 5.13807 167.938 4.83281 168.44 4.62481C168.942 4.4168 169.481 4.31015 170.024 4.311L170.026 4.31Z" fill="#060009"/>
</g>
<defs>
<clipPath id="clip0_1333_122">
<rect width="174.162" height="52" fill="white"/>
</clipPath>
</defs>
</svg>

