<?xml version="1.0" encoding="UTF-8"?><svg id="Vrstva_2" xmlns="http://www.w3.org/2000/svg" viewBox="0 0 165.62 105.83"><defs><style>.cls-1{fill:#fff;}</style></defs><g id="Vrstva_1-2"><g><path class="cls-1" d="M27.89,105.03h-6.32l-4.49-23.73h-.09l-4.49,23.73H6.18L0,73.44H5.59l4.17,24.54h.18l4.35-24.54h5.77l4.49,24.54h.09l4.17-24.54h5.31l-6.23,31.59Z"/><path class="cls-1" d="M37.43,105.03v-31.59h14.52v4.73h-9.25v8.39h8.57v4.37h-8.57v9.32h9.71v4.77h-14.98Z"/><path class="cls-1" d="M75.31,96.2c0,1.67-.28,3.06-.85,4.17-.57,1.12-1.28,2.02-2.15,2.72-.87,.7-1.85,1.2-2.93,1.49-1.08,.3-2.15,.45-3.18,.45h-9.62v-31.59h8.61c.95,0,1.95,.11,3.02,.33,1.07,.22,2.04,.62,2.93,1.2s1.62,1.38,2.2,2.41c.58,1.03,.87,2.36,.87,3.99,0,1.96-.43,3.51-1.28,4.64-.85,1.13-1.85,1.92-2.98,2.36v.09c.61,.15,1.23,.4,1.85,.76,.63,.36,1.2,.85,1.72,1.49,.52,.64,.95,1.41,1.28,2.32,.33,.91,.5,1.96,.5,3.15Zm-6.05-13.96c0-.8-.13-1.48-.39-2.03-.26-.55-.59-1-1-1.34-.41-.34-.89-.59-1.43-.74-.55-.15-1.11-.22-1.68-.22h-3v8.79h3.1c.55,0,1.09-.08,1.62-.25,.53-.16,1-.42,1.41-.78,.41-.36,.74-.82,1-1.38,.26-.56,.39-1.25,.39-2.05Zm.78,13.52c0-.92-.15-1.7-.46-2.34-.3-.64-.7-1.16-1.18-1.56-.49-.4-1.02-.69-1.59-.87-.58-.18-1.15-.27-1.73-.27h-3.33v9.86h3.46c.67,0,1.29-.1,1.87-.29,.58-.19,1.09-.49,1.53-.89,.44-.4,.79-.9,1.05-1.49,.26-.59,.39-1.31,.39-2.14Z"/><path class="cls-1" d="M78.65,105.03v-31.59h14.52v4.73h-9.25v8.39h8.57v4.37h-8.57v9.32h9.71v4.77h-14.98Z"/><path class="cls-1" d="M111.22,105.03l-5.04-13.47h-3.07v13.47h-5.31v-31.59h9.25c1.34,0,2.58,.17,3.71,.51,1.13,.34,2.1,.89,2.91,1.63,.81,.74,1.44,1.68,1.9,2.81,.46,1.13,.69,2.48,.69,4.06,0,1.22-.16,2.3-.48,3.23-.32,.94-.73,1.73-1.21,2.39-.49,.65-1.03,1.18-1.63,1.58-.6,.4-1.18,.68-1.76,.83l5.82,14.54h-5.77Zm-.37-22.31c0-.95-.14-1.74-.41-2.36-.27-.62-.63-1.11-1.08-1.47s-.94-.61-1.49-.76c-.55-.15-1.1-.22-1.65-.22h-3.11v9.73h3.11c1.34,0,2.45-.41,3.32-1.23s1.31-2.04,1.31-3.68Z"/><path class="cls-1" d="M125.6,102.13c0,.92-.3,1.7-.89,2.32s-1.35,.94-2.27,.94-1.66-.31-2.24-.94-.87-1.4-.87-2.32,.29-1.67,.87-2.32,1.33-.98,2.24-.98,1.67,.33,2.27,.98,.89,1.43,.89,2.32Z"/><path class="cls-1" d="M143.08,104.67c-1.33,.77-3,1.16-5.01,1.16-1.83,0-3.49-.42-4.97-1.25-1.48-.83-2.73-1.99-3.76-3.46-1.02-1.47-1.82-3.22-2.38-5.24-.57-2.02-.85-4.24-.85-6.65s.28-4.63,.85-6.67c.57-2.04,1.37-3.79,2.4-5.26,1.04-1.47,2.3-2.62,3.78-3.44,1.48-.82,3.12-1.23,4.92-1.23s3.5,.33,4.9,1c1.4,.67,2.55,1.63,3.43,2.88l-3.16,3.75c-1.25-1.75-2.87-2.63-4.85-2.63-1.1,0-2.06,.31-2.89,.91-.82,.61-1.51,1.44-2.06,2.48-.55,1.04-.96,2.27-1.24,3.68-.27,1.41-.41,2.92-.41,4.53s.14,3.07,.41,4.48c.27,1.41,.69,2.64,1.24,3.68,.55,1.04,1.24,1.87,2.08,2.48,.84,.61,1.82,.91,2.95,.91,1.07,0,1.99-.27,2.77-.8,.78-.54,1.43-1.19,1.95-1.96l3.16,3.61c-.86,1.25-1.95,2.26-3.28,3.03Z"/><path class="cls-1" d="M148.67,105.03v-4.42l10.9-22.44h-10.17v-4.73h16.21v4.33l-10.85,22.44h10.85v4.82h-16.95Z"/><path class="cls-1" d="M154.49,7.59c-.59-1.18-1.62-2.06-2.89-2.49-1.27-.43-2.64-.34-3.85,.23-1.21,.58-2.12,1.58-2.55,2.82-.44,1.24-.35,2.57,.24,3.75,.29,.59,.7,1.1,1.18,1.52l-22.85,33.39c-1.72-.62-3.69-.59-5.47,.25-.05,.02-.1,.06-.15,.08l-29.26-25.18c1.18-2.39,.23-5.3-2.2-6.54h0c-2.49-1.28-5.58-.34-6.89,2.08-.56,1.04-.68,2.19-.47,3.26l-25.57,10.06c-1.79-2.68-5.4-3.7-8.42-2.26-.43,.2-.82,.45-1.17,.72L12.87,7.16c.53-1.32,.53-2.84-.16-4.21-.63-1.26-1.73-2.2-3.09-2.66-1.36-.46-2.82-.37-4.12,.25-1.29,.62-2.26,1.69-2.73,3.01-.47,1.33-.38,2.75,.26,4.01,.63,1.26,1.73,2.2,3.09,2.66,.57,.19,1.17,.29,1.75,.29,.81,0,1.61-.18,2.36-.54,.42-.2,.78-.45,1.12-.74l30.4,23.93c-.25,1.31-.1,2.71,.55,4,.77,1.54,2.12,2.7,3.79,3.26,.7,.24,1.43,.35,2.15,.35,.99,0,1.98-.22,2.89-.66,1.58-.75,2.77-2.07,3.35-3.69,.14-.39,.24-.8,.29-1.2l25.59-12.26c.42,.5,.94,.92,1.56,1.24,.76,.39,1.57,.57,2.37,.57,1.1,0,2.18-.36,3.07-1l27.65,26.61c-.81,1.77-.84,3.85,.1,5.72,1.2,2.4,3.68,3.79,6.25,3.79,1.02,0,2.06-.22,3.04-.69,1.67-.79,2.91-2.17,3.52-3.88,.6-1.71,.48-3.54-.33-5.16-.18-.36-.39-.69-.62-1l21.41-34.77c.52,.17,1.06,.26,1.6,.26,.76,0,1.51-.17,2.21-.5,1.21-.58,2.12-1.58,2.55-2.82,.44-1.24,.35-2.57-.24-3.75Z"/></g></g></svg>